<svg xmlns="http://www.w3.org/2000/svg" xmlns:xlink="http://www.w3.org/1999/xlink" xmlns:lucid="lucid" width="1845.32" height="1233.33"><g transform="translate(-34.75889081276031 1.3333333333333428)" lucid:page-tab-id="0_0"><path d="M0 0h1870.87v1322.84H0z" fill="#fff"/><path d="M241.33 18.67c17.68 0 32 17.9 32 40s-14.32 40-32 40h-96c-17.67 0-32-17.9-32-40s14.33-40 32-40z" stroke="#5e5e5e" stroke-width="3" fill="#cfe4ff"/><use xlink:href="#a" transform="matrix(1,0,0,1,118.33333333333343,23.666666666666657) translate(48.48765432098766 39.65277777777778)"/><path d="M113.33 168.67a6 6 0 0 1 6-6h148a6 6 0 0 1 6 6v108a6 6 0 0 1-6 6h-148a6 6 0 0 1-6-6z" stroke="#5e5e5e" stroke-width="3" fill="#c3f7c8"/><use xlink:href="#b" transform="matrix(1,0,0,1,125.33333333333343,174.66666666666663) translate(41.48765432098765 26.77777777777778)"/><use xlink:href="#c" transform="matrix(1,0,0,1,125.33333333333343,174.66666666666663) translate(6.395061728395056 53.44444444444445)"/><use xlink:href="#d" transform="matrix(1,0,0,1,125.33333333333343,174.66666666666663) translate(117.25925925925927 53.44444444444445)"/><use xlink:href="#e" transform="matrix(1,0,0,1,125.33333333333343,174.66666666666663) translate(23.24691358024691 80.11111111111111)"/><path d="M1613.37 1079.33a6 6 0 0 1 6-6h148a6 6 0 0 1 6 6v108a6 6 0 0 1-6 6h-148a6 6 0 0 1-6-6z" stroke="#5e5e5e" stroke-width="3" fill="#c3f7c8"/><use xlink:href="#f" transform="matrix(1,0,0,1,1625.37420718824,1085.333333333333) translate(8.21604938271605 38.77777777777778)"/><use xlink:href="#g" transform="matrix(1,0,0,1,1625.37420718824,1085.333333333333) translate(82.22839506172839 38.77777777777778)"/><use xlink:href="#h" transform="matrix(1,0,0,1,1625.37420718824,1085.333333333333) translate(15.592592592592595 65.44444444444446)"/><use xlink:href="#i" transform="matrix(1,0,0,1,1625.37420718824,1085.333333333333) translate(53.802469135802475 65.44444444444446)"/><path d="M678.67 284a6 6 0 0 1 6-6h148a6 6 0 0 1 6 6v118.67a6 6 0 0 1-6 6h-148a6 6 0 0 1-6-6z" stroke="#5e5e5e" stroke-width="3" fill="#c3f7c8"/><use xlink:href="#j" transform="matrix(1,0,0,1,690.666666666667,290.00000000003894) translate(32.84567901234568 21.12152777777778)"/><use xlink:href="#k" transform="matrix(1,0,0,1,690.666666666667,290.00000000003894) translate(7.197530864197532 47.78819444444444)"/><use xlink:href="#l" transform="matrix(1,0,0,1,690.666666666667,290.00000000003894) translate(91.76543209876543 47.78819444444444)"/><use xlink:href="#m" transform="matrix(1,0,0,1,690.666666666667,290.00000000003894) translate(23.586419753086425 74.45486111111111)"/><use xlink:href="#n" transform="matrix(1,0,0,1,690.666666666667,290.00000000003894) translate(58.092592592592595 74.45486111111111)"/><use xlink:href="#o" transform="matrix(1,0,0,1,690.666666666667,290.00000000003894) translate(87.72222222222223 74.45486111111111)"/><use xlink:href="#p" transform="matrix(1,0,0,1,690.666666666667,290.00000000003894) translate(42.074074074074076 101.12152777777777)"/><path d="M113.33 352.67a6 6 0 0 1 6-6h148a6 6 0 0 1 6 6v108a6 6 0 0 1-6 6h-148a6 6 0 0 1-6-6z" stroke="#5e5e5e" stroke-width="3" fill="#c3f7c8"/><use xlink:href="#q" transform="matrix(1,0,0,1,125.33333333333343,358.66666666666674) translate(7.012345679012341 53.77777777777778)"/><use xlink:href="#r" transform="matrix(1,0,0,1,125.33333333333343,358.66666666666674) translate(66.20987654320987 53.77777777777778)"/><path d="M1000 282a6 6 0 0 1 6-6h148a6 6 0 0 1 6 6v118.67a6 6 0 0 1-6 6h-148a6 6 0 0 1-6-6z" stroke="#5e5e5e" stroke-width="3" fill="#c3f7c8"/><use xlink:href="#s" transform="matrix(1,0,0,1,1012,288.0000000000388) translate(14.97530864197531 21.12152777777778)"/><use xlink:href="#t" transform="matrix(1,0,0,1,1012,288.0000000000388) translate(96.33333333333334 21.12152777777778)"/><use xlink:href="#u" transform="matrix(1,0,0,1,1012,288.0000000000388) translate(8.21604938271605 47.78819444444444)"/><use xlink:href="#l" transform="matrix(1,0,0,1,1012,288.0000000000388) translate(90.74691358024691 47.78819444444444)"/><use xlink:href="#v" transform="matrix(1,0,0,1,1012,288.0000000000388) translate(7.567901234567898 74.45486111111111)"/><use xlink:href="#w" transform="matrix(1,0,0,1,1012,288.0000000000388) translate(50.77777777777778 74.45486111111111)"/><use xlink:href="#x" transform="matrix(1,0,0,1,1012,288.0000000000388) translate(81.64197530864197 74.45486111111111)"/><use xlink:href="#p" transform="matrix(1,0,0,1,1012,288.0000000000388) translate(42.074074074074076 101.12152777777777)"/><path d="M905.33 573.33a6 6 0 0 1 6-6h148a6 6 0 0 1 6 6v108a6 6 0 0 1-6 6h-148a6 6 0 0 1-6-6z" stroke="#5e5e5e" stroke-width="3" fill="#c3f7c8"/><use xlink:href="#y" transform="matrix(1,0,0,1,917.3333333333339,579.3333333333333) translate(2.8765432098765444 26.77777777777778)"/><use xlink:href="#z" transform="matrix(1,0,0,1,917.3333333333339,579.3333333333333) translate(54.7283950617284 26.77777777777778)"/><use xlink:href="#A" transform="matrix(1,0,0,1,917.3333333333339,579.3333333333333) translate(1.981481481481481 53.44444444444445)"/><use xlink:href="#m" transform="matrix(1,0,0,1,917.3333333333339,579.3333333333333) translate(45.19135802469136 53.44444444444445)"/><use xlink:href="#n" transform="matrix(1,0,0,1,917.3333333333339,579.3333333333333) translate(79.69753086419753 53.44444444444445)"/><use xlink:href="#o" transform="matrix(1,0,0,1,917.3333333333339,579.3333333333333) translate(109.32716049382717 53.44444444444445)"/><use xlink:href="#B" transform="matrix(1,0,0,1,917.3333333333339,579.3333333333333) translate(43.308641975308646 80.11111111111111)"/><path d="M188.96 529.44a6.4 6.4 0 0 1 8.75 0l99.93 93.8a5.63 5.63 0 0 1 0 8.2l-99.92 93.8a6.4 6.4 0 0 1-8.74 0l-99.92-93.8a5.63 5.63 0 0 1 0-8.2z" stroke="#5e5e5e" stroke-width="3" fill="#b8f5ed"/><use xlink:href="#C" transform="matrix(1,0,0,1,89.6666666666668,530.3333333333333) translate(72.83216049382716 60.21527777777778)"/><use xlink:href="#D" transform="matrix(1,0,0,1,89.6666666666668,530.3333333333333) translate(57.88771604938272 86.88194444444446)"/><use xlink:href="#E" transform="matrix(1,0,0,1,89.6666666666668,530.3333333333333) translate(59.65314814814815 113.54861111111111)"/><use xlink:href="#F" transform="matrix(1,0,0,1,89.6666666666668,530.3333333333333) translate(50.480308641975306 140.2152777777778)"/><path d="M479.3 269.2a7.6 7.6 0 0 1 9.4 0l89.26 70.42a4.73 4.73 0 0 1 0 7.43l-89.25 70.42a7.6 7.6 0 0 1-9.4 0l-89.26-70.42a4.73 4.73 0 0 1 0-7.43z" stroke="#5e5e5e" stroke-width="3" fill="#b8f5ed"/><use xlink:href="#G" transform="matrix(1,0,0,1,390.3333333334109,270.4791666667056) translate(22.240740740740748 64.11111111111111)"/><use xlink:href="#H" transform="matrix(1,0,0,1,390.3333333334109,270.4791666667056) translate(83.04320987654322 64.11111111111111)"/><use xlink:href="#I" transform="matrix(1,0,0,1,390.3333333334109,270.4791666667056) translate(141.0679012345679 64.11111111111111)"/><use xlink:href="#J" transform="matrix(1,0,0,1,390.3333333334109,270.4791666667056) translate(21.25308641975309 90.77777777777777)"/><use xlink:href="#K" transform="matrix(1,0,0,1,390.3333333334109,270.4791666667056) translate(76.80864197530865 90.77777777777777)"/><path d="M1294.4 513.23a6.05 6.05 0 0 1 8.53 0l110.8 109.88a5.95 5.95 0 0 1 0 8.46l-110.8 109.88a6.05 6.05 0 0 1-8.52 0l-110.8-109.88a5.95 5.95 0 0 1 0-8.45z" stroke="#5e5e5e" stroke-width="3" fill="#b8f5ed"/><use xlink:href="#L" transform="matrix(1,0,0,1,1184.3333333333733,513.9999999999999) translate(60.276604938271596 74.52777777777777)"/><use xlink:href="#E" transform="matrix(1,0,0,1,1184.3333333333733,513.9999999999999) translate(80.02969135802468 74.52777777777777)"/><use xlink:href="#M" transform="matrix(1,0,0,1,1184.3333333333733,513.9999999999999) translate(28.17783950617284 101.19444444444446)"/><use xlink:href="#N" transform="matrix(1,0,0,1,1184.3333333333733,513.9999999999999) translate(76.26425925925926 101.19444444444446)"/><use xlink:href="#O" transform="matrix(1,0,0,1,1184.3333333333733,513.9999999999999) translate(94.78277777777778 101.19444444444446)"/><use xlink:href="#l" transform="matrix(1,0,0,1,1184.3333333333733,513.9999999999999) translate(163.79512345679012 101.19444444444446)"/><use xlink:href="#P" transform="matrix(1,0,0,1,1184.3333333333733,513.9999999999999) translate(22.004999999999992 127.86111111111111)"/><use xlink:href="#Q" transform="matrix(1,0,0,1,1184.3333333333733,513.9999999999999) translate(40.523518518518514 127.86111111111111)"/><use xlink:href="#R" transform="matrix(1,0,0,1,1184.3333333333733,513.9999999999999) translate(140.4000617283951 127.86111111111111)"/><use xlink:href="#S" transform="matrix(1,0,0,1,1184.3333333333733,513.9999999999999) translate(95.98648148148149 154.52777777777777)"/><path d="M1688.8 488.9a7.03 7.03 0 0 1 9.14 0l157.58 134.54a5.12 5.12 0 0 1 0 7.8l-157.58 134.53a7.03 7.03 0 0 1-9.13 0l-157.57-134.54a5.12 5.12 0 0 1 0-7.8z" stroke="#5e5e5e" stroke-width="3" fill="#b8f5ed"/><use xlink:href="#T" transform="matrix(1,0,0,1,1531.666666666746,489.9999999999999) translate(94.8691975308642 103.71527777777777)"/><use xlink:href="#U" transform="matrix(1,0,0,1,1531.666666666746,489.9999999999999) translate(165.17783950617286 103.71527777777777)"/><use xlink:href="#V" transform="matrix(1,0,0,1,1531.666666666746,489.9999999999999) translate(29.072901234567905 130.38194444444446)"/><use xlink:href="#W" transform="matrix(1,0,0,1,1531.666666666746,489.9999999999999) translate(121.10993827160495 130.38194444444446)"/><use xlink:href="#X" transform="matrix(1,0,0,1,1531.666666666746,489.9999999999999) translate(151.97413580246914 130.38194444444446)"/><use xlink:href="#Y" transform="matrix(1,0,0,1,1531.666666666746,489.9999999999999) translate(246.85067901234567 130.38194444444446)"/><use xlink:href="#Z" transform="matrix(1,0,0,1,1531.666666666746,489.9999999999999) translate(265.3691975308642 130.38194444444446)"/><use xlink:href="#aa" transform="matrix(1,0,0,1,1531.666666666746,489.9999999999999) translate(59.961790123456794 157.04861111111111)"/><use xlink:href="#ab" transform="matrix(1,0,0,1,1531.666666666746,489.9999999999999) translate(108.10993827160495 157.04861111111111)"/><use xlink:href="#ac" transform="matrix(1,0,0,1,1531.666666666746,489.9999999999999) translate(182.1222839506173 157.04861111111111)"/><use xlink:href="#ad" transform="matrix(1,0,0,1,1531.666666666746,489.9999999999999) translate(212.9864814814815 157.04861111111111)"/><use xlink:href="#ae" transform="matrix(1,0,0,1,1531.666666666746,489.9999999999999) translate(66.56672839506172 183.71527777777777)"/><use xlink:href="#af" transform="matrix(1,0,0,1,1531.666666666746,489.9999999999999) translate(166.44327160493827 183.71527777777777)"/><use xlink:href="#S" transform="matrix(1,0,0,1,1531.666666666746,489.9999999999999) translate(219.40623456790124 183.71527777777777)"/><path d="M477.4 547.18a7.2 7.2 0 0 1 9.2 0l91.46 76.3a5 5 0 0 1 0 7.7l-91.45 76.3a7.2 7.2 0 0 1-9.2 0l-91.46-76.3a5 5 0 0 1 0-7.7z" stroke="#5e5e5e" stroke-width="3" fill="#b8f5ed"/><use xlink:href="#ag" transform="matrix(1,0,0,1,386.333333333411,548.3333333333333) translate(81.83833333333334 42.46527777777778)"/><use xlink:href="#H" transform="matrix(1,0,0,1,386.333333333411,548.3333333333333) translate(54.646975308641984 69.13194444444446)"/><use xlink:href="#I" transform="matrix(1,0,0,1,386.333333333411,548.3333333333333) translate(112.67166666666667 69.13194444444446)"/><use xlink:href="#ah" transform="matrix(1,0,0,1,386.333333333411,548.3333333333333) translate(26.49265432098765 95.79861111111111)"/><path d="M712.66 610.33a3.2 3.2 0 0 1 2.67-5H762a3.2 3.2 0 0 1 2.67 5l-22.67 34a4 4 0 0 1-6.66 0z" stroke="#5e5e5e" stroke-width="3" fill="#ffe342"/><path d="M733.87 792.93a8 8 0 0 1 9.6 0l93.5 70.14a4.5 4.5 0 0 1 0 7.2l-93.5 70.13a8 8 0 0 1-9.6 0l-93.5-70.13a4.5 4.5 0 0 1 0-7.2z" stroke="#5e5e5e" stroke-width="3" fill="#b8f5ed"/><use xlink:href="#ai" transform="matrix(1,0,0,1,640.5555555555169,794.3333333332946) translate(86.2766049382716 35.90277777777778)"/><use xlink:href="#aj" transform="matrix(1,0,0,1,640.5555555555169,794.3333333332946) translate(60.85067901234567 62.56944444444445)"/><use xlink:href="#H" transform="matrix(1,0,0,1,640.5555555555169,794.3333333332946) translate(31.90006172839507 89.23611111111111)"/><use xlink:href="#ak" transform="matrix(1,0,0,1,640.5555555555169,794.3333333332946) translate(89.92475308641976 89.23611111111111)"/><use xlink:href="#al" transform="matrix(1,0,0,1,640.5555555555169,794.3333333332946) translate(73.31364197530864 115.9027777777778)"/><path d="M344 812.67a6 6 0 0 1 6-6h148a6 6 0 0 1 6 6v108a6 6 0 0 1-6 6H350a6 6 0 0 1-6-6z" stroke="#5e5e5e" stroke-width="3" fill="#c3f7c8"/><use xlink:href="#f" transform="matrix(1,0,0,1,355.99999999996123,818.6666666666666) translate(8.21604938271605 38.77777777777778)"/><use xlink:href="#g" transform="matrix(1,0,0,1,355.99999999996123,818.6666666666666) translate(82.22839506172839 38.77777777777778)"/><use xlink:href="#h" transform="matrix(1,0,0,1,355.99999999996123,818.6666666666666) translate(9.419753086419746 65.44444444444446)"/><use xlink:href="#am" transform="matrix(1,0,0,1,355.99999999996123,818.6666666666666) translate(47.629629629629626 65.44444444444446)"/><path d="M69.33 807.33a6 6 0 0 1 6-6h148a6 6 0 0 1 6 6V926a6 6 0 0 1-6 6h-148a6 6 0 0 1-6-6z" stroke="#5e5e5e" stroke-width="3" fill="#c3f7c8"/><use xlink:href="#j" transform="matrix(1,0,0,1,81.33333333333337,813.3333333333333) translate(32.84567901234568 21.12152777777778)"/><use xlink:href="#k" transform="matrix(1,0,0,1,81.33333333333337,813.3333333333333) translate(7.197530864197532 47.78819444444444)"/><use xlink:href="#l" transform="matrix(1,0,0,1,81.33333333333337,813.3333333333333) translate(91.76543209876543 47.78819444444444)"/><use xlink:href="#m" transform="matrix(1,0,0,1,81.33333333333337,813.3333333333333) translate(27.320987654320987 74.45486111111111)"/><use xlink:href="#n" transform="matrix(1,0,0,1,81.33333333333337,813.3333333333333) translate(61.82716049382716 74.45486111111111)"/><use xlink:href="#an" transform="matrix(1,0,0,1,81.33333333333337,813.3333333333333) translate(91.45679012345678 74.45486111111111)"/><use xlink:href="#ao" transform="matrix(1,0,0,1,81.33333333333337,813.3333333333333) translate(1.3333333333333428 101.12152777777777)"/><use xlink:href="#p" transform="matrix(1,0,0,1,81.33333333333337,813.3333333333333) translate(82.81481481481482 101.12152777777777)"/><path d="M1667.37 887.66a3.2 3.2 0 0 1 2.67-5h46.67a3.2 3.2 0 0 1 2.68 5l-22.68 34a4 4 0 0 1-6.65 0z" stroke="#5e5e5e" stroke-width="3" fill="#ffe342"/><path d="M1333.2 827.6a8 8 0 0 1 9.6 0l97.96 73.47a4.5 4.5 0 0 1 0 7.2l-97.96 73.46a8 8 0 0 1-9.6 0l-97.96-73.46a4.5 4.5 0 0 1 0-7.2z" stroke="#5e5e5e" stroke-width="3" fill="#b8f5ed"/><use xlink:href="#ap" transform="matrix(1,0,0,1,1235.4444444444844,828.9999999999999) translate(46.48648148148147 55.77777777777778)"/><use xlink:href="#aq" transform="matrix(1,0,0,1,1235.4444444444844,828.9999999999999) translate(83.40006172839506 55.77777777777778)"/><use xlink:href="#ar" transform="matrix(1,0,0,1,1235.4444444444844,828.9999999999999) translate(62.38154320987655 82.44444444444446)"/><use xlink:href="#as" transform="matrix(1,0,0,1,1235.4444444444844,828.9999999999999) translate(93.24574074074074 82.44444444444446)"/><use xlink:href="#K" transform="matrix(1,0,0,1,1235.4444444444844,828.9999999999999) translate(57.53586419753086 109.11111111111111)"/><path d="M1258 1074a6 6 0 0 1 6-6h148a6 6 0 0 1 6 6v118.67a6 6 0 0 1-6 6h-148a6 6 0 0 1-6-6z" stroke="#5e5e5e" stroke-width="3" fill="#c3f7c8"/><use xlink:href="#s" transform="matrix(1,0,0,1,1270.00000000004,1079.9999999999995) translate(14.97530864197531 21.12152777777778)"/><use xlink:href="#t" transform="matrix(1,0,0,1,1270.00000000004,1079.9999999999995) translate(96.33333333333334 21.12152777777778)"/><use xlink:href="#u" transform="matrix(1,0,0,1,1270.00000000004,1079.9999999999995) translate(8.21604938271605 47.78819444444444)"/><use xlink:href="#l" transform="matrix(1,0,0,1,1270.00000000004,1079.9999999999995) translate(90.74691358024691 47.78819444444444)"/><use xlink:href="#at" transform="matrix(1,0,0,1,1270.00000000004,1079.9999999999995) translate(11.2716049382716 74.45486111111111)"/><use xlink:href="#au" transform="matrix(1,0,0,1,1270.00000000004,1079.9999999999995) translate(112.38271604938271 74.45486111111111)"/><use xlink:href="#av" transform="matrix(1,0,0,1,1270.00000000004,1079.9999999999995) translate(39.111111111111114 101.12152777777777)"/><path d="M921.33 1060.67a6 6 0 0 1 6-6h148a6 6 0 0 1 6 6V1206a6 6 0 0 1-6 6h-148a6 6 0 0 1-6-6z" stroke="#5e5e5e" stroke-width="3" fill="#c3f7c8"/><use xlink:href="#j" transform="matrix(1,0,0,1,933.3333333333333,1066.6666666667054) translate(32.84567901234568 21.96527777777778)"/><use xlink:href="#k" transform="matrix(1,0,0,1,933.3333333333333,1066.6666666667054) translate(7.197530864197532 48.63194444444444)"/><use xlink:href="#l" transform="matrix(1,0,0,1,933.3333333333333,1066.6666666667054) translate(91.76543209876543 48.63194444444444)"/><use xlink:href="#m" transform="matrix(1,0,0,1,933.3333333333333,1066.6666666667054) translate(20.561728395061735 75.29861111111111)"/><use xlink:href="#n" transform="matrix(1,0,0,1,933.3333333333333,1066.6666666667054) translate(55.067901234567906 75.29861111111111)"/><use xlink:href="#aw" transform="matrix(1,0,0,1,933.3333333333333,1066.6666666667054) translate(84.69753086419753 75.29861111111111)"/><use xlink:href="#ax" transform="matrix(1,0,0,1,933.3333333333333,1066.6666666667054) translate(15.006172839506178 101.96527777777777)"/><use xlink:href="#I" transform="matrix(1,0,0,1,933.3333333333333,1066.6666666667054) translate(96.30246913580247 101.96527777777777)"/><use xlink:href="#J" transform="matrix(1,0,0,1,933.3333333333333,1066.6666666667054) translate(1.4259259259259238 128.63194444444446)"/><use xlink:href="#ay" transform="matrix(1,0,0,1,933.3333333333333,1066.6666666667054) translate(56.98148148148148 128.63194444444446)"/><path d="M1293.2 71.97a8 8 0 0 1 9.6 0l97.96 73.46a4.5 4.5 0 0 1 0 7.2l-97.96 73.47a8 8 0 0 1-9.6 0l-97.96-73.47a4.5 4.5 0 0 1 0-7.2z" stroke="#5e5e5e" stroke-width="3" fill="#b8f5ed"/><use xlink:href="#ap" transform="matrix(1,0,0,1,1195.4444444444844,73.36738644200943) translate(46.48648148148147 55.77777777777778)"/><use xlink:href="#aq" transform="matrix(1,0,0,1,1195.4444444444844,73.36738644200943) translate(83.40006172839506 55.77777777777778)"/><use xlink:href="#ar" transform="matrix(1,0,0,1,1195.4444444444844,73.36738644200943) translate(62.38154320987655 82.44444444444446)"/><use xlink:href="#as" transform="matrix(1,0,0,1,1195.4444444444844,73.36738644200943) translate(93.24574074074074 82.44444444444446)"/><use xlink:href="#K" transform="matrix(1,0,0,1,1195.4444444444844,73.36738644200943) translate(57.53586419753086 109.11111111111111)"/><path d="M1272 360.7a3.2 3.2 0 0 1 2.67-5h46.66a3.2 3.2 0 0 1 2.68 5l-22.67 34a4 4 0 0 1-6.66 0z" stroke="#5e5e5e" stroke-width="3" fill="#ffe342"/><path d="M1538.67 89.7a6 6 0 0 1 6-6h148a6 6 0 0 1 6 6v118.67a6 6 0 0 1-6 6h-148a6 6 0 0 1-6-6z" stroke="#5e5e5e" stroke-width="3" fill="#c3f7c8"/><use xlink:href="#s" transform="matrix(1,0,0,1,1550.666666666746,95.70071977534279) translate(14.97530864197531 21.12152777777778)"/><use xlink:href="#t" transform="matrix(1,0,0,1,1550.666666666746,95.70071977534279) translate(96.33333333333334 21.12152777777778)"/><use xlink:href="#u" transform="matrix(1,0,0,1,1550.666666666746,95.70071977534279) translate(8.21604938271605 47.78819444444444)"/><use xlink:href="#l" transform="matrix(1,0,0,1,1550.666666666746,95.70071977534279) translate(90.74691358024691 47.78819444444444)"/><use xlink:href="#az" transform="matrix(1,0,0,1,1550.666666666746,95.70071977534279) translate(13.185185185185176 74.45486111111111)"/><use xlink:href="#au" transform="matrix(1,0,0,1,1550.666666666746,95.70071977534279) translate(110.46913580246914 74.45486111111111)"/><use xlink:href="#av" transform="matrix(1,0,0,1,1550.666666666746,95.70071977534279) translate(39.111111111111114 101.12152777777777)"/><path d="M1554.67 305.03a6 6 0 0 1 6-6h148a6 6 0 0 1 6 6v145.34a6 6 0 0 1-6 6h-148a6 6 0 0 1-6-6z" stroke="#5e5e5e" stroke-width="3" fill="#c3f7c8"/><use xlink:href="#y" transform="matrix(1,0,0,1,1566.6666666666667,311.0340531086373) translate(2.8765432098765444 21.96527777777778)"/><use xlink:href="#z" transform="matrix(1,0,0,1,1566.6666666666667,311.0340531086373) translate(54.7283950617284 21.96527777777778)"/><use xlink:href="#A" transform="matrix(1,0,0,1,1566.6666666666667,311.0340531086373) translate(17.413580246913583 48.63194444444444)"/><use xlink:href="#m" transform="matrix(1,0,0,1,1566.6666666666667,311.0340531086373) translate(60.62345679012346 48.63194444444444)"/><use xlink:href="#aA" transform="matrix(1,0,0,1,1566.6666666666667,311.0340531086373) translate(95.12962962962963 48.63194444444444)"/><use xlink:href="#aB" transform="matrix(1,0,0,1,1566.6666666666667,311.0340531086373) translate(11.981481481481481 75.29861111111111)"/><use xlink:href="#aq" transform="matrix(1,0,0,1,1566.6666666666667,311.0340531086373) translate(48.89506172839506 75.29861111111111)"/><use xlink:href="#ar" transform="matrix(1,0,0,1,1566.6666666666667,311.0340531086373) translate(27.876543209876544 101.96527777777777)"/><use xlink:href="#as" transform="matrix(1,0,0,1,1566.6666666666667,311.0340531086373) translate(58.74074074074074 101.96527777777777)"/><use xlink:href="#ay" transform="matrix(1,0,0,1,1566.6666666666667,311.0340531086373) translate(29.203703703703702 128.63194444444446)"/><path d="M193.33 101.17v41.53" stroke="#5e5e5e" stroke-width="2" fill="none"/><path d="M194.33 101.2h-2v-1.03h2z" stroke="#5e5e5e" stroke-width=".05" fill="#5e5e5e"/><path d="M193.33 157.97l-4.63-14.27h9.27z" stroke="#5e5e5e" stroke-width="2" fill="#5e5e5e"/><path d="M193.33 285.13v41.57" stroke="#5e5e5e" stroke-width="2" fill="none"/><path d="M194.33 285.16h-2v-1.03h2z" stroke="#5e5e5e" stroke-width=".05" fill="#5e5e5e"/><path d="M193.33 341.97l-4.63-14.27h9.27z" stroke="#5e5e5e" stroke-width="2" fill="#5e5e5e"/><path d="M193.33 469.13v38.57" stroke="#5e5e5e" stroke-width="2" fill="none"/><path d="M194.33 469.16h-2v-1.03h2z" stroke="#5e5e5e" stroke-width=".05" fill="#5e5e5e"/><path d="M193.33 522.97l-4.63-14.27h9.27z" stroke="#5e5e5e" stroke-width="2" fill="#5e5e5e"/><path d="M325.48 628.33H301.9v-2h23.58zm38.65 0h-6.06v-2h6.06z" stroke="#5e5e5e" stroke-width=".05" fill="#5e5e5e"/><path d="M301.93 628.33h-1.1l.08-1-.07-1h1.1z" fill="#5e5e5e"/><path d="M301.96 628.36h-1.16l.08-1.03-.08-1.02h1.16zm-1.1-2l.07.97-.08.98h1.06v-1.94z" stroke="#5e5e5e" stroke-width=".05" fill="#5e5e5e"/><path d="M379.4 627.33l-14.27 4.64v-9.27z" fill="#5e5e5e"/><path d="M382.63 627.33l-18.5 6v-12zm-16.5 3.26l10.03-3.27-10.03-3.26z" stroke="#5e5e5e" stroke-width=".05" fill="#5e5e5e"/><g><use xlink:href="#aC" transform="matrix(1,0,0,1,325.4753281165383,616.6666666666666) translate(0 14.222222222222223)"/></g><path d="M635.5 628.33h-53.13v-2h53.14zm68.24 0H668.1v-2h35.64z" stroke="#5e5e5e" stroke-width=".05" fill="#5e5e5e"/><path d="M582.4 628.33h-1.12l.1-1-.1-1h1.1z" fill="#5e5e5e"/><path d="M582.4 628.36h-1.15l.1-1.03-.1-1.02h1.16zm-1.1-2l.1.97-.1.98h1.07v-1.94z" stroke="#5e5e5e" stroke-width=".05" fill="#5e5e5e"/><path d="M719 627.33l-14.26 4.64v-9.27z" fill="#5e5e5e"/><path d="M722.24 627.33l-18.5 6v-12zm-16.5 3.26l10.03-3.27-10.03-3.26z" stroke="#5e5e5e" stroke-width=".05" fill="#5e5e5e"/><g><use xlink:href="#aC" transform="matrix(1,0,0,1,635.506235815359,616.6666666666666) translate(0 14.222222222222223)"/></g><path d="M738.67 648.63v122.7" stroke="#5e5e5e" stroke-width="2" fill="none"/><path d="M738.67 647.63l1-.1v1.13h-2v-1.13z" stroke="#5e5e5e" stroke-width=".05" fill="#5e5e5e"/><path d="M738.67 786.6l-4.64-14.27h9.27z" stroke="#5e5e5e" stroke-width="2" fill="#5e5e5e"/><path d="M554.5 867.67H524v-2h30.54zm81.55 0H588v-2h48.05z" stroke="#5e5e5e" stroke-width=".05" fill="#5e5e5e"/><path d="M637.05 866.67l.1 1H636v-2h1.12z" fill="#5e5e5e"/><path d="M637.07 866.67l.1 1.02H636v-2.06h1.17zm-1.02-.98v1.94h1.07l-.1-.97.1-.98z" stroke="#5e5e5e" stroke-width=".05" fill="#5e5e5e"/><path d="M522.97 871.3l-14.27-4.63 14.27-4.64z" fill="#5e5e5e"/><path d="M523.97 872.68l-18.5-6 18.5-6.02zm-12.04-6l10.04 3.25v-6.52z" stroke="#5e5e5e" stroke-width=".05" fill="#5e5e5e"/><g><use xlink:href="#aD" transform="matrix(1,0,0,1,554.5154922931214,856.0000000715397) translate(0 14.222222222222223)"/></g><path d="M341.54 866.67H249.3" stroke="#5e5e5e" stroke-width="2" fill="none"/><path d="M342.54 867.67h-1.03v-2h1.04z" stroke="#5e5e5e" stroke-width=".05" fill="#5e5e5e"/><path d="M234.03 866.67l14.27-4.64v9.27z" stroke="#5e5e5e" stroke-width="2" fill="#5e5e5e"/><path d="M756.98 626h128.4" stroke="#5e5e5e" stroke-width="2" fill="none"/><path d="M757 627h-1.7l1.34-2h.36z" stroke="#5e5e5e" stroke-width=".05" fill="#5e5e5e"/><path d="M900.63 626l-14.26 4.63v-9.27z" stroke="#5e5e5e" stroke-width="2" fill="#5e5e5e"/><path d="M483 543h-2v-50.03h2zm2-103.9v32.54h-2V439.1z" stroke="#5e5e5e" stroke-width=".05" fill="#5e5e5e"/><path d="M483 544.07l-1-.07-1 .07v-1.1h2z" fill="#5e5e5e"/><path d="M483.02 544.1l-1.02-.07-1.02.07v-1.15h2.04zm-2-1.1v1.05l.98-.07.98.07V543z" stroke="#5e5e5e" stroke-width=".05" fill="#5e5e5e"/><path d="M488.63 438.1h-9.26l4.63-14.25z" fill="#5e5e5e"/><path d="M490 439.1h-12l6-18.5zm-9.26-2h6.52L484 427.1z" stroke="#5e5e5e" stroke-width=".05" fill="#5e5e5e"/><g><use xlink:href="#aD" transform="matrix(1,0,0,1,466.2592591544668,471.6398034473599) translate(0 14.222222222222223)"/></g><path d="M612.94 344.33h-30.68v-2h30.68zm45.76 0h-13.17v-2h13.17z" stroke="#5e5e5e" stroke-width=".05" fill="#5e5e5e"/><path d="M582.3 344.33h-1.13l.1-1-.1-1h1.12z" fill="#5e5e5e"/><path d="M582.32 344.36h-1.17l.1-1.03-.1-1.02h1.17zm-1.12-2l.1.97-.1.98h1.06v-1.94z" stroke="#5e5e5e" stroke-width=".05" fill="#5e5e5e"/><path d="M673.97 343.33l-14.27 4.64v-9.27z" fill="#5e5e5e"/><path d="M677.2 343.33l-18.5 6.02v-12.03zm-16.5 3.26l10.03-3.27-10.03-3.26z" stroke="#5e5e5e" stroke-width=".05" fill="#5e5e5e"/><g><use xlink:href="#aC" transform="matrix(1,0,0,1,612.9374856821966,332.6666666667056) translate(0 14.222222222222223)"/></g><path d="M841.13 343.33h138.9" stroke="#5e5e5e" stroke-width="2" fill="none"/><path d="M841.16 344.33h-1.03v-2h1.03z" stroke="#5e5e5e" stroke-width=".05" fill="#5e5e5e"/><path d="M995.3 343.33l-14.26 4.64v-9.27z" stroke="#5e5e5e" stroke-width="2" fill="#5e5e5e"/><path d="M1067.8 627.33h94.03" stroke="#5e5e5e" stroke-width="2" fill="none"/><path d="M1067.82 628.33h-1.02v-2h1.02z" stroke="#5e5e5e" stroke-width=".05" fill="#5e5e5e"/><path d="M1177.1 627.33l-14.27 4.64v-9.27z" stroke="#5e5e5e" stroke-width="2" fill="#5e5e5e"/><path d="M1299.67 508.97h-2v-44.32h2zm-.66-65.66h-2v-26.8h2z" stroke="#5e5e5e" stroke-width=".05" fill="#5e5e5e"/><path d="M1299.67 510.04l-1-.07-1 .07v-1.1h2z" fill="#5e5e5e"/><path d="M1299.7 510.07l-1.03-.08-1.03.07v-1.15h2.05zm-2-1.1V510l.97-.08.97.08v-1.06z" stroke="#5e5e5e" stroke-width=".05" fill="#5e5e5e"/><path d="M1302.63 415.5h-9.27l4.64-14.27z" fill="#5e5e5e"/><path d="M1304 416.5h-12l6-18.5zm-9.26-2h6.52l-3.26-10.03z" stroke="#5e5e5e" stroke-width=".05" fill="#5e5e5e"/><g><use xlink:href="#aD" transform="matrix(1,0,0,1,1281.5925924358307,443.31472898758244) translate(0 14.222222222222223)"/></g><path d="M1298 353.24V247.7" stroke="#5e5e5e" stroke-width="2" fill="none"/><path d="M1299 354.24h-2v-1.03h2z" stroke="#5e5e5e" stroke-width=".05" fill="#5e5e5e"/><path d="M1298 232.44l4.63 14.27h-9.27z" stroke="#5e5e5e" stroke-width="2" fill="#5e5e5e"/><path d="M1454.34 150.03h-49.28v-2h49.28zm64.36 0h-31.77v-2h31.77z" stroke="#5e5e5e" stroke-width=".05" fill="#5e5e5e"/><path d="M1405.1 150.03h-1.13l.1-1-.1-1h1.12z" fill="#5e5e5e"/><path d="M1405.1 150.06h-1.16l.1-1.03-.1-1.02h1.17zm-1.1-2l.1.97-.1.98h1.06v-1.94z" stroke="#5e5e5e" stroke-width=".05" fill="#5e5e5e"/><path d="M1533.97 149.03l-14.27 4.64v-9.27z" fill="#5e5e5e"/><path d="M1537.2 149.03l-18.5 6.02v-12.03zm-16.5 3.26l10.03-3.27-10.03-3.25z" stroke="#5e5e5e" stroke-width=".05" fill="#5e5e5e"/><g><use xlink:href="#aC" transform="matrix(1,0,0,1,1454.3363737357438,138.36738644200946) translate(0 14.222222222222223)"/></g><path d="M1316.3 376.37h218.4" stroke="#5e5e5e" stroke-width="2" fill="none"/><path d="M1316.34 377.37h-1.7l1.33-2h.37z" stroke="#5e5e5e" stroke-width=".05" fill="#5e5e5e"/><path d="M1549.97 376.37L1535.7 381v-9.27z" stroke="#5e5e5e" stroke-width="2" fill="#5e5e5e"/><path d="M1456.17 628.33H1418v-2h38.17zm53.26 0h-20.67v-2h20.67z" stroke="#5e5e5e" stroke-width=".05" fill="#5e5e5e"/><path d="M1418.03 628.33h-1.1l.08-1-.08-1h1.1z" fill="#5e5e5e"/><path d="M1418.06 628.36h-1.16l.08-1.03-.08-1.02h1.15zm-1.1-2l.07.97-.08.98h1.06v-1.94z" stroke="#5e5e5e" stroke-width=".05" fill="#5e5e5e"/><path d="M1524.7 627.33l-14.27 4.64v-9.27z" fill="#5e5e5e"/><path d="M1527.93 627.33l-18.5 6v-12zm-16.5 3.26l10.03-3.27-10.03-3.26z" stroke="#5e5e5e" stroke-width=".05" fill="#5e5e5e"/><g><use xlink:href="#aC" transform="matrix(1,0,0,1,1456.169857637651,616.6666667439995) translate(0 14.222222222222223)"/></g><path d="M1694.37 862.7h-2v-26.95h2zm0-48.3h-2v-44.44h2z" stroke="#5e5e5e" stroke-width=".05" fill="#5e5e5e"/><path d="M1693.37 768.96l1-.07v1.08h-2v-1.1z" fill="#5e5e5e"/><path d="M1693.37 768.93l1.03-.07V770h-2.05v-1.14zm-.97 1.03h1.95v-1.05l-.98.08-.97-.07z" stroke="#5e5e5e" stroke-width=".05" fill="#5e5e5e"/><path d="M1693.37 877.97l-4.63-14.27h9.27z" fill="#5e5e5e"/><path d="M1693.37 881.2l-6-18.5h12.02zm-3.25-16.5l3.25 10.03 3.26-10.03z" stroke="#5e5e5e" stroke-width=".05" fill="#5e5e5e"/><g><use xlink:href="#aC" transform="matrix(1,0,0,1,1677.0779108716592,814.4137881557563) translate(0 14.222222222222223)"/></g><path d="M1693.37 925.96v127.4" stroke="#5e5e5e" stroke-width="2" fill="none"/><path d="M1693.37 924.96l1-.1V926h-2v-1.14z" stroke="#5e5e5e" stroke-width=".05" fill="#5e5e5e"/><path d="M1693.37 1068.63l-4.63-14.26h9.27z" stroke="#5e5e5e" stroke-width="2" fill="#5e5e5e"/><path d="M1675.95 904.67h-213.4" stroke="#5e5e5e" stroke-width="2" fill="none"/><path d="M1677.62 905.67h-1.7v-2h.36z" stroke="#5e5e5e" stroke-width=".05" fill="#5e5e5e"/><path d="M1447.3 904.67l14.26-4.64v9.27z" stroke="#5e5e5e" stroke-width="2" fill="#5e5e5e"/><path d="M1339 1048.04h-2v-11.7h2zm0-33.02h-2v-29.18h2z" stroke="#5e5e5e" stroke-width=".05" fill="#5e5e5e"/><path d="M1338 984.84l1-.07v1.1h-2v-1.1z" fill="#5e5e5e"/><path d="M1338 984.8l1.03-.05v1.14h-2.06v-1.15zm-.97 1.04h1.94v-1.04l-.97.06-.97-.06z" stroke="#5e5e5e" stroke-width=".05" fill="#5e5e5e"/><path d="M1338 1063.3l-4.63-14.26h9.27z" fill="#5e5e5e"/><path d="M1338 1066.54l-6-18.5h12zm-3.26-16.5l3.26 10.03 3.26-10.03z" stroke="#5e5e5e" stroke-width=".05" fill="#5e5e5e"/><g><use xlink:href="#aD" transform="matrix(1,0,0,1,1321.25925921017,1015.0199174181242) translate(0 14.222222222222223)"/></g><path d="M1255.54 1133.33H1101.3" stroke="#5e5e5e" stroke-width="2" fill="none"/><path d="M1256.54 1134.33h-1.03v-2h1.04z" stroke="#5e5e5e" stroke-width=".05" fill="#5e5e5e"/><path d="M1086.03 1133.33l14.27-4.63v9.27z" stroke="#5e5e5e" stroke-width="2" fill="#5e5e5e"/><path d="M67.26 628.33l-16.32.08-.72.18-.73.3-.68.4-.6.52-.5.6-.4.67-.3.72-.2.75-.06.82.07 129.9.18.74.3.73.42.67.5.6.6.5.67.4.72.32.76.18.82.06 51.46-.03v2l-51.54.03-1.06-.08-1.06-.26-1.02-.42-.94-.57-.83-.72-.7-.82-.58-.94-.42-1-.27-1.12-.07-130.23.08-1.06.26-1.07.42-1.02.57-.93.7-.84.84-.7.94-.6 1.02-.4 1.1-.27 16.55-.07zM194.33 762.5l-.08 1.06-.26 1.07-.43 1-.57.95-.72.83-.83.73-.94.57-1 .42-1.1.27-51.66.02v-2l51.4-.03.74-.18.72-.3.67-.4.6-.52.5-.6.42-.67.3-.72.17-.76.06-.82v-32.96h2z" stroke="#5e5e5e" stroke-width=".05" fill="#5e5e5e"/><path d="M193.33 728.46l1-.07v1.1h-2v-1.1z" fill="#5e5e5e"/><path d="M193.33 728.44l1.03-.08v1.15h-2.05v-1.14zm-.97 1.02h1.95v-1.05l-.97.1-.97-.1z" stroke="#5e5e5e" stroke-width=".05" fill="#5e5e5e"/><path d="M82.52 627.33l-14.26 4.64v-9.27z" fill="#5e5e5e"/><path d="M85.76 627.33l-18.5 6v-12zm-16.5 3.26l10.03-3.27-10.04-3.26z" stroke="#5e5e5e" stroke-width=".05" fill="#5e5e5e"/><g><use xlink:href="#aD" transform="matrix(1,0,0,1,103.25925925925925,757.7961026152872) translate(0 14.222222222222223)"/></g><defs><path fill="#5e5e5e" d="M33 0v-248h34V0H33" id="aE"/><path fill="#5e5e5e" d="M117-194c89-4 53 116 60 194h-32v-121c0-31-8-49-39-48C34-167 62-67 57 0H25l-1-190h30c1 10-1 24 2 32 11-22 29-35 61-36" id="aF"/><path fill="#5e5e5e" d="M34 0v-190h32V0H34zM24-211c8-23 27-35 38-54h36v5l-58 49H24" id="aG"/><path fill="#5e5e5e" d="M96-169c-40 0-48 33-48 73s9 75 48 75c24 0 41-14 43-38l32 2c-6 37-31 61-74 61-59 0-76-41-82-99-10-93 101-131 147-64 4 7 5 14 7 22l-32 3c-4-21-16-35-41-35" id="aH"/><path fill="#5e5e5e" d="M24-231v-30h32v30H24zM24 0v-190h32V0H24" id="aI"/><path fill="#5e5e5e" d="M100-194c62-1 85 37 85 99 1 63-27 99-86 99S16-35 15-95c0-66 28-99 85-99zM99-20c44 1 53-31 53-75 0-43-8-75-51-75s-53 32-53 75 10 74 51 75" id="aJ"/><g id="a"><use transform="matrix(0.06172839506172839,0,0,0.06172839506172839,0,0)" xlink:href="#aE"/><use transform="matrix(0.06172839506172839,0,0,0.06172839506172839,6.172839506172839,0)" xlink:href="#aF"/><use transform="matrix(0.06172839506172839,0,0,0.06172839506172839,18.51851851851852,0)" xlink:href="#aG"/><use transform="matrix(0.06172839506172839,0,0,0.06172839506172839,24.691358024691358,0)" xlink:href="#aH"/><use transform="matrix(0.06172839506172839,0,0,0.06172839506172839,35.80246913580247,0)" xlink:href="#aI"/><use transform="matrix(0.06172839506172839,0,0,0.06172839506172839,40.67901234567901,0)" xlink:href="#aJ"/></g><path fill="#333" d="M33 0v-248h34V0H33" id="aK"/><path fill="#333" d="M117-194c89-4 53 116 60 194h-32v-121c0-31-8-49-39-48C34-167 62-67 57 0H25l-1-190h30c1 10-1 24 2 32 11-22 29-35 61-36" id="aL"/><path fill="#333" d="M24-231v-30h32v30H24zM24 0v-190h32V0H24" id="aM"/><path fill="#333" d="M96-169c-40 0-48 33-48 73s9 75 48 75c24 0 41-14 43-38l32 2c-6 37-31 61-74 61-59 0-76-41-82-99-10-93 101-131 147-64 4 7 5 14 7 22l-32 3c-4-21-16-35-41-35" id="aN"/><path fill="#333" d="M34 0v-190h32V0H34zM24-211c8-23 27-35 38-54h36v5l-58 49H24" id="aO"/><path fill="#333" d="M141-36C126-15 110 5 73 4 37 3 15-17 15-53c-1-64 63-63 125-63 3-35-9-54-41-54-24 1-41 7-42 31l-33-3c5-37 33-52 76-52 45 0 72 20 72 64v82c-1 20 7 32 28 27v20c-31 9-61-2-59-35zM48-53c0 20 12 33 32 33 41-3 63-29 60-74-43 2-92-5-92 41" id="aP"/><g id="b"><use transform="matrix(0.06172839506172839,0,0,0.06172839506172839,0,0)" xlink:href="#aK"/><use transform="matrix(0.06172839506172839,0,0,0.06172839506172839,6.172839506172839,0)" xlink:href="#aL"/><use transform="matrix(0.06172839506172839,0,0,0.06172839506172839,18.51851851851852,0)" xlink:href="#aM"/><use transform="matrix(0.06172839506172839,0,0,0.06172839506172839,23.395061728395063,0)" xlink:href="#aN"/><use transform="matrix(0.06172839506172839,0,0,0.06172839506172839,34.50617283950618,0)" xlink:href="#aO"/><use transform="matrix(0.06172839506172839,0,0,0.06172839506172839,40.67901234567902,0)" xlink:href="#aP"/></g><path fill="#333" d="M30-248c87 1 191-15 191 75 0 78-77 80-158 76V0H30v-248zm33 125c57 0 124 11 124-50 0-59-68-47-124-48v98" id="aQ"/><path fill="#333" d="M100-194c63 0 86 42 84 106H49c0 40 14 67 53 68 26 1 43-12 49-29l28 8c-11 28-37 45-77 45C44 4 14-33 15-96c1-61 26-98 85-98zm52 81c6-60-76-77-97-28-3 7-6 17-6 28h103" id="aR"/><path fill="#333" d="M114-163C36-179 61-72 57 0H25l-1-190h30c1 12-1 29 2 39 6-27 23-49 58-41v29" id="aS"/><path fill="#333" d="M101-234c-31-9-42 10-38 44h38v23H63V0H32v-167H5v-23h27c-7-52 17-82 69-68v24" id="aT"/><path fill="#333" d="M100-194c63 0 86 42 84 106H49c0 40 14 67 53 68 26 1 43-12 49-29l28 8c-11 28-37 45-77 45C44 4 14-33 15-96c1-61 26-98 85-98zm52 81c6-60-76-77-97-28-3 7-6 17-6 28h103zm-74-98c8-23 27-35 38-54h36v5l-58 49H78" id="aU"/><path fill="#333" d="M100-194c62-1 85 37 85 99 1 63-27 99-86 99S16-35 15-95c0-66 28-99 85-99zM99-20c44 1 53-31 53-75 0-43-8-75-51-75s-53 32-53 75 10 74 51 75" id="aV"/><path fill="#333" d="M135-143c-3-34-86-38-87 0 15 53 115 12 119 90S17 21 10-45l28-5c4 36 97 45 98 0-10-56-113-15-118-90-4-57 82-63 122-42 12 7 21 19 24 35" id="aW"/><g id="c"><use transform="matrix(0.06172839506172839,0,0,0.06172839506172839,0,0)" xlink:href="#aQ"/><use transform="matrix(0.06172839506172839,0,0,0.06172839506172839,14.814814814814813,0)" xlink:href="#aR"/><use transform="matrix(0.06172839506172839,0,0,0.06172839506172839,27.160493827160494,0)" xlink:href="#aS"/><use transform="matrix(0.06172839506172839,0,0,0.06172839506172839,34.50617283950617,0)" xlink:href="#aM"/><use transform="matrix(0.06172839506172839,0,0,0.06172839506172839,39.382716049382715,0)" xlink:href="#aT"/><use transform="matrix(0.06172839506172839,0,0,0.06172839506172839,45.55555555555556,0)" xlink:href="#aU"/><use transform="matrix(0.06172839506172839,0,0,0.06172839506172839,57.901234567901234,0)" xlink:href="#aS"/><use transform="matrix(0.06172839506172839,0,0,0.06172839506172839,65.24691358024691,0)" xlink:href="#aM"/><use transform="matrix(0.06172839506172839,0,0,0.06172839506172839,70.12345679012346,0)" xlink:href="#aN"/><use transform="matrix(0.06172839506172839,0,0,0.06172839506172839,81.23456790123457,0)" xlink:href="#aV"/><use transform="matrix(0.06172839506172839,0,0,0.06172839506172839,93.58024691358025,0)" xlink:href="#aW"/></g><use transform="matrix(0.06172839506172839,0,0,0.06172839506172839,0,0)" xlink:href="#aR" id="d"/><path fill="#333" d="M137 0h-34L2-248h35l83 218 83-218h36" id="aX"/><path fill="#333" d="M141-36C126-15 110 5 73 4 37 3 15-17 15-53c-1-64 63-63 125-63 3-35-9-54-41-54-24 1-41 7-42 31l-33-3c5-37 33-52 76-52 45 0 72 20 72 64v82c-1 20 7 32 28 27v20c-31 9-61-2-59-35zM48-53c0 20 12 33 32 33 41-3 63-29 60-74-43 2-92-5-92 41zm25-158c8-23 27-35 38-54h36v5l-58 49H73" id="aY"/><path fill="#333" d="M108 0H70L1-190h34L89-25l56-165h34" id="aZ"/><g id="e"><use transform="matrix(0.06172839506172839,0,0,0.06172839506172839,0,0)" xlink:href="#aX"/><use transform="matrix(0.06172839506172839,0,0,0.06172839506172839,13.148148148148147,0)" xlink:href="#aP"/><use transform="matrix(0.06172839506172839,0,0,0.06172839506172839,25.493827160493826,0)" xlink:href="#aS"/><use transform="matrix(0.06172839506172839,0,0,0.06172839506172839,32.839506172839506,0)" xlink:href="#aM"/><use transform="matrix(0.06172839506172839,0,0,0.06172839506172839,37.71604938271605,0)" xlink:href="#aY"/><use transform="matrix(0.06172839506172839,0,0,0.06172839506172839,50.06172839506173,0)" xlink:href="#aZ"/><use transform="matrix(0.06172839506172839,0,0,0.06172839506172839,61.172839506172835,0)" xlink:href="#aR"/><use transform="matrix(0.06172839506172839,0,0,0.06172839506172839,73.51851851851852,0)" xlink:href="#aM"/><use transform="matrix(0.06172839506172839,0,0,0.06172839506172839,78.39506172839506,0)" xlink:href="#aW"/></g><path fill="#333" d="M205 0l-28-72H64L36 0H1l101-248h38L239 0h-34zm-38-99l-47-123c-12 45-31 82-46 123h93" id="ba"/><g id="f"><use transform="matrix(0.06172839506172839,0,0,0.06172839506172839,0,0)" xlink:href="#ba"/><use transform="matrix(0.06172839506172839,0,0,0.06172839506172839,14.814814814814813,0)" xlink:href="#aN"/><use transform="matrix(0.06172839506172839,0,0,0.06172839506172839,25.925925925925924,0)" xlink:href="#aM"/><use transform="matrix(0.06172839506172839,0,0,0.06172839506172839,30.80246913580247,0)" xlink:href="#aV"/><use transform="matrix(0.06172839506172839,0,0,0.06172839506172839,43.148148148148145,0)" xlink:href="#aL"/><use transform="matrix(0.06172839506172839,0,0,0.06172839506172839,55.49382716049382,0)" xlink:href="#aP"/></g><path fill="#333" d="M233-177c-1 41-23 64-60 70L243 0h-38l-65-103H63V0H30v-248c88 3 205-21 203 71zM63-129c60-2 137 13 137-47 0-61-80-42-137-45v92" id="bb"/><path fill="#333" d="M24 0v-261h32V0H24" id="bc"/><g id="g"><use transform="matrix(0.06172839506172839,0,0,0.06172839506172839,0,0)" xlink:href="#bb"/><use transform="matrix(0.06172839506172839,0,0,0.06172839506172839,15.987654320987653,0)" xlink:href="#aR"/><use transform="matrix(0.06172839506172839,0,0,0.06172839506172839,28.333333333333332,0)" xlink:href="#bc"/><use transform="matrix(0.06172839506172839,0,0,0.06172839506172839,33.20987654320987,0)" xlink:href="#aU"/></g><path fill="#333" d="M115-194c55 1 70 41 70 98S169 2 115 4C84 4 66-9 55-30l1 105H24l-1-265h31l2 30c10-21 28-34 59-34zm-8 174c40 0 45-34 45-75s-6-73-45-74c-42 0-51 32-51 76 0 43 10 73 51 73" id="bd"/><g id="h"><use transform="matrix(0.06172839506172839,0,0,0.06172839506172839,0,0)" xlink:href="#bd"/><use transform="matrix(0.06172839506172839,0,0,0.06172839506172839,12.345679012345679,0)" xlink:href="#aV"/><use transform="matrix(0.06172839506172839,0,0,0.06172839506172839,24.691358024691358,0)" xlink:href="#aS"/></g><path fill="#333" d="M27 0v-27h64v-190l-56 39v-29l58-41h29v221h61V0H27" id="be"/><path fill="#333" d="M54-142c48-35 137-8 131 61C196 18 31 33 14-55l32-4c7 23 22 37 52 37 35-1 51-22 54-58 4-55-73-65-99-34H22l8-134h141v27H59" id="bf"/><path fill="#333" d="M101-251c68 0 85 55 85 127S166 4 100 4C33 4 14-52 14-124c0-73 17-127 87-127zm-1 229c47 0 54-49 54-102s-4-102-53-102c-51 0-55 48-55 102 0 53 5 102 54 102" id="bg"/><path fill="#333" d="M210-169c-67 3-38 105-44 169h-31v-121c0-29-5-50-35-48C34-165 62-65 56 0H25l-1-190h30c1 10-1 24 2 32 10-44 99-50 107 0 11-21 27-35 58-36 85-2 47 119 55 194h-31v-121c0-29-5-49-35-48" id="bh"/><g id="i"><use transform="matrix(0.06172839506172839,0,0,0.06172839506172839,0,0)" xlink:href="#be"/><use transform="matrix(0.06172839506172839,0,0,0.06172839506172839,12.345679012345679,0)" xlink:href="#bf"/><use transform="matrix(0.06172839506172839,0,0,0.06172839506172839,24.691358024691358,0)" xlink:href="#bg"/><use transform="matrix(0.06172839506172839,0,0,0.06172839506172839,37.03703703703704,0)" xlink:href="#bh"/><use transform="matrix(0.06172839506172839,0,0,0.06172839506172839,55.49382716049382,0)" xlink:href="#aW"/></g><path fill="#333" d="M59-47c-2 24 18 29 38 22v24C64 9 27 4 27-40v-127H5v-23h24l9-43h21v43h35v23H59v120" id="bi"/><g id="j"><use transform="matrix(0.06172839506172839,0,0,0.06172839506172839,0,0)" xlink:href="#bb"/><use transform="matrix(0.06172839506172839,0,0,0.06172839506172839,15.987654320987653,0)" xlink:href="#aR"/><use transform="matrix(0.06172839506172839,0,0,0.06172839506172839,28.333333333333332,0)" xlink:href="#aW"/><use transform="matrix(0.06172839506172839,0,0,0.06172839506172839,39.44444444444444,0)" xlink:href="#aR"/><use transform="matrix(0.06172839506172839,0,0,0.06172839506172839,51.79012345679012,0)" xlink:href="#bi"/><use transform="matrix(0.06172839506172839,0,0,0.06172839506172839,57.96296296296296,0)" xlink:href="#aP"/></g><g id="k"><use transform="matrix(0.06172839506172839,0,0,0.06172839506172839,0,0)" xlink:href="#aX"/><use transform="matrix(0.06172839506172839,0,0,0.06172839506172839,13.148148148148147,0)" xlink:href="#aP"/><use transform="matrix(0.06172839506172839,0,0,0.06172839506172839,25.493827160493826,0)" xlink:href="#aS"/><use transform="matrix(0.06172839506172839,0,0,0.06172839506172839,32.839506172839506,0)" xlink:href="#aM"/><use transform="matrix(0.06172839506172839,0,0,0.06172839506172839,37.71604938271605,0)" xlink:href="#aY"/><use transform="matrix(0.06172839506172839,0,0,0.06172839506172839,50.06172839506173,0)" xlink:href="#aZ"/><use transform="matrix(0.06172839506172839,0,0,0.06172839506172839,61.172839506172835,0)" xlink:href="#aR"/><use transform="matrix(0.06172839506172839,0,0,0.06172839506172839,73.51851851851852,0)" xlink:href="#bc"/></g><path fill="#333" d="M145-31C134-9 116 4 85 4 32 4 16-35 15-94c0-59 17-99 70-100 32-1 48 14 60 33 0-11-1-24 2-32h30l-1 268h-32zM93-21c41 0 51-33 51-76s-8-73-50-73c-40 0-46 35-46 75s5 74 45 74" id="bj"/><path fill="#333" d="M84 4C-5 8 30-112 23-190h32v120c0 31 7 50 39 49 72-2 45-101 50-169h31l1 190h-30c-1-10 1-25-2-33-11 22-28 36-60 37" id="bk"/><g id="l"><use transform="matrix(0.06172839506172839,0,0,0.06172839506172839,0,0)" xlink:href="#bj"/><use transform="matrix(0.06172839506172839,0,0,0.06172839506172839,12.345679012345679,0)" xlink:href="#bk"/><use transform="matrix(0.06172839506172839,0,0,0.06172839506172839,24.691358024691358,0)" xlink:href="#aR"/></g><path fill="#333" d="M85-194c31 0 48 13 60 33l-1-100h32l1 261h-30c-2-10 0-23-3-31C134-8 116 4 85 4 32 4 16-35 15-94c0-66 23-100 70-100zm9 24c-40 0-46 34-46 75 0 40 6 74 45 74 42 0 51-32 51-76 0-42-9-74-50-73" id="bl"/><path fill="#333" d="M9 0v-24l116-142H16v-24h144v24L44-24h123V0H9" id="bm"/><g id="m"><use transform="matrix(0.06172839506172839,0,0,0.06172839506172839,0,0)" xlink:href="#bl"/><use transform="matrix(0.06172839506172839,0,0,0.06172839506172839,12.345679012345679,0)" xlink:href="#aM"/><use transform="matrix(0.06172839506172839,0,0,0.06172839506172839,17.22222222222222,0)" xlink:href="#bm"/></g><g id="n"><use transform="matrix(0.06172839506172839,0,0,0.06172839506172839,0,0)" xlink:href="#aW"/><use transform="matrix(0.06172839506172839,0,0,0.06172839506172839,11.11111111111111,0)" xlink:href="#aR"/></g><path fill="#333" d="M106-169C34-169 62-67 57 0H25v-261h32l-1 103c12-21 28-36 61-36 89 0 53 116 60 194h-32v-121c2-32-8-49-39-48" id="bn"/><g id="o"><use transform="matrix(0.06172839506172839,0,0,0.06172839506172839,0,0)" xlink:href="#bn"/><use transform="matrix(0.06172839506172839,0,0,0.06172839506172839,12.345679012345679,0)" xlink:href="#aY"/></g><path fill="#333" d="M96-269c9-18 26-28 38-43h37v5l-55 38H96zM205 0l-28-72H64L36 0H1l101-248h38L239 0h-34zm-38-99l-47-123c-12 45-31 82-46 123h93" id="bo"/><path fill="#333" d="M177-190C167-65 218 103 67 71c-23-6-38-20-44-43l32-5c15 47 100 32 89-28v-30C133-14 115 1 83 1 29 1 15-40 15-95c0-56 16-97 71-98 29-1 48 16 59 35 1-10 0-23 2-32h30zM94-22c36 0 50-32 50-73 0-42-14-75-50-75-39 0-46 34-46 75s6 73 46 73" id="bp"/><g id="p"><use transform="matrix(0.06172839506172839,0,0,0.06172839506172839,0,0)" xlink:href="#bo"/><use transform="matrix(0.06172839506172839,0,0,0.06172839506172839,14.814814814814813,0)" xlink:href="#bp"/><use transform="matrix(0.06172839506172839,0,0,0.06172839506172839,27.160493827160494,0)" xlink:href="#bk"/><use transform="matrix(0.06172839506172839,0,0,0.06172839506172839,39.50617283950617,0)" xlink:href="#aP"/></g><g id="q"><use transform="matrix(0.06172839506172839,0,0,0.06172839506172839,0,0)" xlink:href="#aK"/><use transform="matrix(0.06172839506172839,0,0,0.06172839506172839,6.172839506172839,0)" xlink:href="#aL"/><use transform="matrix(0.06172839506172839,0,0,0.06172839506172839,18.51851851851852,0)" xlink:href="#aM"/><use transform="matrix(0.06172839506172839,0,0,0.06172839506172839,23.395061728395063,0)" xlink:href="#aN"/><use transform="matrix(0.06172839506172839,0,0,0.06172839506172839,34.50617283950618,0)" xlink:href="#aO"/><use transform="matrix(0.06172839506172839,0,0,0.06172839506172839,40.67901234567902,0)" xlink:href="#aP"/></g><path fill="#333" d="M240 0l2-218c-23 76-54 145-80 218h-23L58-218 59 0H30v-248h44l77 211c21-75 51-140 76-211h43V0h-30" id="bq"/><path fill="#333" d="M140-251c81 0 123 46 123 126C263-53 228-8 163 1c7 30 30 48 69 40v23c-55 16-95-15-103-61C56-3 17-48 17-125c0-80 42-126 123-126zm0 227c63 0 89-41 89-101s-29-99-89-99c-61 0-89 39-89 99S79-25 140-24" id="br"/><path fill="#333" d="M127-220V0H93v-220H8v-28h204v28h-85" id="bs"/><g id="r"><use transform="matrix(0.06172839506172839,0,0,0.06172839506172839,0,0)" xlink:href="#bq"/><use transform="matrix(0.06172839506172839,0,0,0.06172839506172839,18.456790123456788,0)" xlink:href="#br"/><use transform="matrix(0.06172839506172839,0,0,0.06172839506172839,35.74074074074073,0)" xlink:href="#bs"/><use transform="matrix(0.06172839506172839,0,0,0.06172839506172839,49.25925925925925,0)" xlink:href="#bs"/></g><g id="s"><use transform="matrix(0.06172839506172839,0,0,0.06172839506172839,0,0)" xlink:href="#aK"/><use transform="matrix(0.06172839506172839,0,0,0.06172839506172839,6.172839506172839,0)" xlink:href="#aL"/><use transform="matrix(0.06172839506172839,0,0,0.06172839506172839,18.51851851851852,0)" xlink:href="#aT"/><use transform="matrix(0.06172839506172839,0,0,0.06172839506172839,24.691358024691358,0)" xlink:href="#aV"/><use transform="matrix(0.06172839506172839,0,0,0.06172839506172839,37.03703703703704,0)" xlink:href="#aS"/><use transform="matrix(0.06172839506172839,0,0,0.06172839506172839,44.382716049382715,0)" xlink:href="#bh"/><use transform="matrix(0.06172839506172839,0,0,0.06172839506172839,62.839506172839506,0)" xlink:href="#aP"/></g><g id="t"><use transform="matrix(0.06172839506172839,0,0,0.06172839506172839,0,0)" xlink:href="#aP"/><use transform="matrix(0.06172839506172839,0,0,0.06172839506172839,12.345679012345679,0)" xlink:href="#aV"/></g><path fill="#333" d="M232-93c-1 65-40 97-104 97C67 4 28-28 28-90v-158h33c8 89-33 224 67 224 102 0 64-133 71-224h33v155" id="bt"/><g id="u"><use transform="matrix(0.06172839506172839,0,0,0.06172839506172839,0,0)" xlink:href="#bt"/><use transform="matrix(0.06172839506172839,0,0,0.06172839506172839,15.987654320987653,0)" xlink:href="#aW"/><use transform="matrix(0.06172839506172839,0,0,0.06172839506172839,27.098765432098766,0)" xlink:href="#bk"/><use transform="matrix(0.06172839506172839,0,0,0.06172839506172839,39.44444444444444,0)" xlink:href="#aY"/><use transform="matrix(0.06172839506172839,0,0,0.06172839506172839,51.79012345679012,0)" xlink:href="#aS"/><use transform="matrix(0.06172839506172839,0,0,0.06172839506172839,59.1358024691358,0)" xlink:href="#aM"/><use transform="matrix(0.06172839506172839,0,0,0.06172839506172839,64.01234567901234,0)" xlink:href="#aV"/></g><path fill="#333" d="M141-36C126-15 110 5 73 4 37 3 15-17 15-53c-1-64 63-63 125-63 3-35-9-54-41-54-24 1-41 7-42 31l-33-3c5-37 33-52 76-52 45 0 72 20 72 64v82c-1 20 7 32 28 27v20c-31 9-61-2-59-35zM48-53c0 20 12 33 32 33 41-3 63-29 60-74-43 2-92-5-92 41zm117-205c-3 23-9 48-36 47-26-1-65-44-74 0H39c4-23 8-48 36-47s64 44 74 0h16" id="bu"/><g id="v"><use transform="matrix(0.06172839506172839,0,0,0.06172839506172839,0,0)" xlink:href="#aL"/><use transform="matrix(0.06172839506172839,0,0,0.06172839506172839,12.345679012345679,0)" xlink:href="#bu"/><use transform="matrix(0.06172839506172839,0,0,0.06172839506172839,24.691358024691358,0)" xlink:href="#aV"/></g><g id="w"><use transform="matrix(0.06172839506172839,0,0,0.06172839506172839,0,0)" xlink:href="#bn"/><use transform="matrix(0.06172839506172839,0,0,0.06172839506172839,12.345679012345679,0)" xlink:href="#aY"/></g><g id="x"><use transform="matrix(0.06172839506172839,0,0,0.06172839506172839,0,0)" xlink:href="#bh"/><use transform="matrix(0.06172839506172839,0,0,0.06172839506172839,18.456790123456788,0)" xlink:href="#aP"/><use transform="matrix(0.06172839506172839,0,0,0.06172839506172839,30.80246913580247,0)" xlink:href="#aM"/><use transform="matrix(0.06172839506172839,0,0,0.06172839506172839,35.67901234567901,0)" xlink:href="#aW"/></g><path fill="#333" d="M185-189c-5-48-123-54-124 2 14 75 158 14 163 119 3 78-121 87-175 55-17-10-28-26-33-46l33-7c5 56 141 63 141-1 0-78-155-14-162-118-5-82 145-84 179-34 5 7 8 16 11 25" id="bv"/><g id="y"><use transform="matrix(0.06172839506172839,0,0,0.06172839506172839,0,0)" xlink:href="#bv"/><use transform="matrix(0.06172839506172839,0,0,0.06172839506172839,14.814814814814813,0)" xlink:href="#aR"/><use transform="matrix(0.06172839506172839,0,0,0.06172839506172839,27.160493827160494,0)" xlink:href="#bi"/><use transform="matrix(0.06172839506172839,0,0,0.06172839506172839,33.333333333333336,0)" xlink:href="#aP"/></g><g id="z"><use transform="matrix(0.06172839506172839,0,0,0.06172839506172839,0,0)" xlink:href="#aX"/><use transform="matrix(0.06172839506172839,0,0,0.06172839506172839,13.148148148148147,0)" xlink:href="#aP"/><use transform="matrix(0.06172839506172839,0,0,0.06172839506172839,25.493827160493826,0)" xlink:href="#aS"/><use transform="matrix(0.06172839506172839,0,0,0.06172839506172839,32.839506172839506,0)" xlink:href="#aM"/><use transform="matrix(0.06172839506172839,0,0,0.06172839506172839,37.71604938271605,0)" xlink:href="#aY"/><use transform="matrix(0.06172839506172839,0,0,0.06172839506172839,50.06172839506173,0)" xlink:href="#aZ"/><use transform="matrix(0.06172839506172839,0,0,0.06172839506172839,61.172839506172835,0)" xlink:href="#aR"/><use transform="matrix(0.06172839506172839,0,0,0.06172839506172839,73.51851851851852,0)" xlink:href="#bc"/></g><g id="A"><use transform="matrix(0.06172839506172839,0,0,0.06172839506172839,0,0)" xlink:href="#bj"/><use transform="matrix(0.06172839506172839,0,0,0.06172839506172839,12.345679012345679,0)" xlink:href="#bk"/><use transform="matrix(0.06172839506172839,0,0,0.06172839506172839,24.691358024691358,0)" xlink:href="#aR"/></g><g id="B"><use transform="matrix(0.06172839506172839,0,0,0.06172839506172839,0,0)" xlink:href="#aY"/><use transform="matrix(0.06172839506172839,0,0,0.06172839506172839,12.345679012345679,0)" xlink:href="#bp"/><use transform="matrix(0.06172839506172839,0,0,0.06172839506172839,24.691358024691358,0)" xlink:href="#bk"/><use transform="matrix(0.06172839506172839,0,0,0.06172839506172839,37.03703703703704,0)" xlink:href="#aP"/></g><g id="C"><use transform="matrix(0.06172839506172839,0,0,0.06172839506172839,0,0)" xlink:href="#bq"/><use transform="matrix(0.06172839506172839,0,0,0.06172839506172839,18.456790123456788,0)" xlink:href="#br"/><use transform="matrix(0.06172839506172839,0,0,0.06172839506172839,35.74074074074073,0)" xlink:href="#bs"/><use transform="matrix(0.06172839506172839,0,0,0.06172839506172839,49.25925925925925,0)" xlink:href="#bs"/></g><g id="D"><use transform="matrix(0.06172839506172839,0,0,0.06172839506172839,0,0)" xlink:href="#bb"/><use transform="matrix(0.06172839506172839,0,0,0.06172839506172839,15.987654320987653,0)" xlink:href="#aR"/><use transform="matrix(0.06172839506172839,0,0,0.06172839506172839,28.333333333333332,0)" xlink:href="#bi"/><use transform="matrix(0.06172839506172839,0,0,0.06172839506172839,34.50617283950617,0)" xlink:href="#aV"/><use transform="matrix(0.06172839506172839,0,0,0.06172839506172839,46.85185185185185,0)" xlink:href="#aS"/><use transform="matrix(0.06172839506172839,0,0,0.06172839506172839,54.197530864197525,0)" xlink:href="#aL"/><use transform="matrix(0.06172839506172839,0,0,0.06172839506172839,66.5432098765432,0)" xlink:href="#aV"/><use transform="matrix(0.06172839506172839,0,0,0.06172839506172839,78.88888888888889,0)" xlink:href="#bk"/></g><g id="E"><use transform="matrix(0.06172839506172839,0,0,0.06172839506172839,0,0)" xlink:href="#bt"/><use transform="matrix(0.06172839506172839,0,0,0.06172839506172839,15.987654320987653,0)" xlink:href="#bh"/><use transform="matrix(0.06172839506172839,0,0,0.06172839506172839,34.44444444444444,0)" xlink:href="#aM"/><use transform="matrix(0.06172839506172839,0,0,0.06172839506172839,39.32098765432099,0)" xlink:href="#bl"/><use transform="matrix(0.06172839506172839,0,0,0.06172839506172839,51.666666666666664,0)" xlink:href="#aP"/><use transform="matrix(0.06172839506172839,0,0,0.06172839506172839,64.01234567901234,0)" xlink:href="#bl"/><use transform="matrix(0.06172839506172839,0,0,0.06172839506172839,76.35802469135803,0)" xlink:href="#aR"/></g><path fill="#333" d="M30-248c118-7 216 8 213 122C240-48 200 0 122 0H30v-248zM63-27c89 8 146-16 146-99s-60-101-146-95v194" id="bw"/><path fill="#333" d="M24-231v-30h32v30H24zM-9 49c24 4 33-6 33-30v-209h32V24c2 40-23 58-65 49V49" id="bx"/><path fill="#333" d="M103-251c84 0 111 97 45 133-19 10-37 24-39 52H78c0-63 77-55 77-114 0-30-21-42-52-43-32 0-53 17-56 46l-32-2c7-45 34-72 88-72zM77 0v-35h34V0H77" id="by"/><g id="F"><use transform="matrix(0.06172839506172839,0,0,0.06172839506172839,0,0)" xlink:href="#bw"/><use transform="matrix(0.06172839506172839,0,0,0.06172839506172839,15.987654320987653,0)" xlink:href="#aR"/><use transform="matrix(0.06172839506172839,0,0,0.06172839506172839,28.333333333333332,0)" xlink:href="#aW"/><use transform="matrix(0.06172839506172839,0,0,0.06172839506172839,39.44444444444444,0)" xlink:href="#aR"/><use transform="matrix(0.06172839506172839,0,0,0.06172839506172839,51.79012345679012,0)" xlink:href="#bx"/><use transform="matrix(0.06172839506172839,0,0,0.06172839506172839,56.666666666666664,0)" xlink:href="#aP"/><use transform="matrix(0.06172839506172839,0,0,0.06172839506172839,69.01234567901234,0)" xlink:href="#bl"/><use transform="matrix(0.06172839506172839,0,0,0.06172839506172839,81.35802469135803,0)" xlink:href="#aP"/><use transform="matrix(0.06172839506172839,0,0,0.06172839506172839,93.70370370370371,0)" xlink:href="#by"/></g><g id="G"><use transform="matrix(0.06172839506172839,0,0,0.06172839506172839,0,0)" xlink:href="#bs"/><use transform="matrix(0.06172839506172839,0,0,0.06172839506172839,12.716049382716047,0)" xlink:href="#aM"/><use transform="matrix(0.06172839506172839,0,0,0.06172839506172839,17.592592592592588,0)" xlink:href="#aL"/><use transform="matrix(0.06172839506172839,0,0,0.06172839506172839,29.938271604938265,0)" xlink:href="#bn"/><use transform="matrix(0.06172839506172839,0,0,0.06172839506172839,42.28395061728394,0)" xlink:href="#aP"/></g><g id="H"><use transform="matrix(0.06172839506172839,0,0,0.06172839506172839,0,0)" xlink:href="#bo"/><use transform="matrix(0.06172839506172839,0,0,0.06172839506172839,14.814814814814813,0)" xlink:href="#bp"/><use transform="matrix(0.06172839506172839,0,0,0.06172839506172839,27.160493827160494,0)" xlink:href="#bk"/><use transform="matrix(0.06172839506172839,0,0,0.06172839506172839,39.50617283950617,0)" xlink:href="#aP"/></g><g id="I"><use transform="matrix(0.06172839506172839,0,0,0.06172839506172839,0,0)" xlink:href="#aL"/><use transform="matrix(0.06172839506172839,0,0,0.06172839506172839,12.345679012345679,0)" xlink:href="#aV"/></g><path fill="#333" d="M30 0v-248h33v221h125V0H30" id="bz"/><g id="J"><use transform="matrix(0.06172839506172839,0,0,0.06172839506172839,0,0)" xlink:href="#bz"/><use transform="matrix(0.06172839506172839,0,0,0.06172839506172839,12.345679012345679,0)" xlink:href="#aV"/><use transform="matrix(0.06172839506172839,0,0,0.06172839506172839,24.691358024691358,0)" xlink:href="#aV"/><use transform="matrix(0.06172839506172839,0,0,0.06172839506172839,37.03703703703704,0)" xlink:href="#bd"/></g><g id="K"><use transform="matrix(0.06172839506172839,0,0,0.06172839506172839,0,0)" xlink:href="#ba"/><use transform="matrix(0.06172839506172839,0,0,0.06172839506172839,14.814814814814813,0)" xlink:href="#aL"/><use transform="matrix(0.06172839506172839,0,0,0.06172839506172839,27.160493827160494,0)" xlink:href="#bi"/><use transform="matrix(0.06172839506172839,0,0,0.06172839506172839,33.333333333333336,0)" xlink:href="#aR"/><use transform="matrix(0.06172839506172839,0,0,0.06172839506172839,45.67901234567901,0)" xlink:href="#aS"/><use transform="matrix(0.06172839506172839,0,0,0.06172839506172839,53.02469135802469,0)" xlink:href="#aM"/><use transform="matrix(0.06172839506172839,0,0,0.06172839506172839,57.901234567901234,0)" xlink:href="#aV"/><use transform="matrix(0.06172839506172839,0,0,0.06172839506172839,70.24691358024691,0)" xlink:href="#aS"/><use transform="matrix(0.06172839506172839,0,0,0.06172839506172839,77.5925925925926,0)" xlink:href="#by"/></g><use transform="matrix(0.06172839506172839,0,0,0.06172839506172839,0,0)" xlink:href="#ba" id="L"/><g id="M"><use transform="matrix(0.06172839506172839,0,0,0.06172839506172839,0,0)" xlink:href="#bz"/><use transform="matrix(0.06172839506172839,0,0,0.06172839506172839,12.345679012345679,0)" xlink:href="#aM"/><use transform="matrix(0.06172839506172839,0,0,0.06172839506172839,17.22222222222222,0)" xlink:href="#bl"/><use transform="matrix(0.06172839506172839,0,0,0.06172839506172839,29.5679012345679,0)" xlink:href="#aP"/></g><use transform="matrix(0.06172839506172839,0,0,0.06172839506172839,0,0)" xlink:href="#aU" id="N"/><g id="O"><use transform="matrix(0.06172839506172839,0,0,0.06172839506172839,0,0)" xlink:href="#bq"/><use transform="matrix(0.06172839506172839,0,0,0.06172839506172839,18.456790123456788,0)" xlink:href="#aR"/><use transform="matrix(0.06172839506172839,0,0,0.06172839506172839,30.80246913580247,0)" xlink:href="#aL"/><use transform="matrix(0.06172839506172839,0,0,0.06172839506172839,43.148148148148145,0)" xlink:href="#aV"/><use transform="matrix(0.06172839506172839,0,0,0.06172839506172839,55.49382716049382,0)" xlink:href="#aS"/></g><use transform="matrix(0.06172839506172839,0,0,0.06172839506172839,0,0)" xlink:href="#aP" id="P"/><g id="Q"><use transform="matrix(0.06172839506172839,0,0,0.06172839506172839,0,0)" xlink:href="#bw"/><use transform="matrix(0.06172839506172839,0,0,0.06172839506172839,15.987654320987653,0)" xlink:href="#aR"/><use transform="matrix(0.06172839506172839,0,0,0.06172839506172839,28.333333333333332,0)" xlink:href="#aW"/><use transform="matrix(0.06172839506172839,0,0,0.06172839506172839,39.44444444444444,0)" xlink:href="#aR"/><use transform="matrix(0.06172839506172839,0,0,0.06172839506172839,51.79012345679012,0)" xlink:href="#bx"/><use transform="matrix(0.06172839506172839,0,0,0.06172839506172839,56.666666666666664,0)" xlink:href="#aP"/><use transform="matrix(0.06172839506172839,0,0,0.06172839506172839,69.01234567901234,0)" xlink:href="#bl"/><use transform="matrix(0.06172839506172839,0,0,0.06172839506172839,81.35802469135803,0)" xlink:href="#aP"/></g><g id="R"><use transform="matrix(0.06172839506172839,0,0,0.06172839506172839,0,0)" xlink:href="#bq"/><use transform="matrix(0.06172839506172839,0,0,0.06172839506172839,18.456790123456788,0)" xlink:href="#aR"/><use transform="matrix(0.06172839506172839,0,0,0.06172839506172839,30.80246913580247,0)" xlink:href="#aL"/><use transform="matrix(0.06172839506172839,0,0,0.06172839506172839,43.148148148148145,0)" xlink:href="#aV"/><use transform="matrix(0.06172839506172839,0,0,0.06172839506172839,55.49382716049382,0)" xlink:href="#aW"/></g><g id="S"><use transform="matrix(0.06172839506172839,0,0,0.06172839506172839,0,0)" xlink:href="#be"/><use transform="matrix(0.06172839506172839,0,0,0.06172839506172839,12.345679012345679,0)" xlink:href="#bg"/><use transform="matrix(0.06172839506172839,0,0,0.06172839506172839,24.691358024691358,0)" xlink:href="#by"/></g><path fill="#333" d="M197 0v-115H63V0H30v-248h33v105h134v-105h34V0h-34" id="bA"/><g id="T"><use transform="matrix(0.06172839506172839,0,0,0.06172839506172839,0,0)" xlink:href="#bA"/><use transform="matrix(0.06172839506172839,0,0,0.06172839506172839,15.987654320987653,0)" xlink:href="#aV"/><use transform="matrix(0.06172839506172839,0,0,0.06172839506172839,28.333333333333332,0)" xlink:href="#bk"/><use transform="matrix(0.06172839506172839,0,0,0.06172839506172839,40.67901234567901,0)" xlink:href="#aZ"/><use transform="matrix(0.06172839506172839,0,0,0.06172839506172839,51.79012345679013,0)" xlink:href="#aR"/></g><g id="U"><use transform="matrix(0.06172839506172839,0,0,0.06172839506172839,0,0)" xlink:href="#aQ"/><use transform="matrix(0.06172839506172839,0,0,0.06172839506172839,14.814814814814813,0)" xlink:href="#aV"/><use transform="matrix(0.06172839506172839,0,0,0.06172839506172839,27.160493827160494,0)" xlink:href="#bk"/><use transform="matrix(0.06172839506172839,0,0,0.06172839506172839,39.50617283950617,0)" xlink:href="#aN"/><use transform="matrix(0.06172839506172839,0,0,0.06172839506172839,50.61728395061728,0)" xlink:href="#aP"/></g><path fill="#333" d="M96-169c-40 0-48 33-48 73s9 75 48 75c24 0 41-14 43-38l32 2c-6 37-31 61-74 61-59 0-76-41-82-99-10-93 101-131 147-64 4 7 5 14 7 22l-32 3c-4-21-16-35-41-35zm3 187c19-1 33 8 33 26 0 31-30 33-64 32V58c18 2 39 4 41-13 1-15-18-13-34-13L87 0h19" id="bB"/><g id="V"><use transform="matrix(0.06172839506172839,0,0,0.06172839506172839,0,0)" xlink:href="#aX"/><use transform="matrix(0.06172839506172839,0,0,0.06172839506172839,13.148148148148147,0)" xlink:href="#aP"/><use transform="matrix(0.06172839506172839,0,0,0.06172839506172839,25.493827160493826,0)" xlink:href="#aS"/><use transform="matrix(0.06172839506172839,0,0,0.06172839506172839,32.839506172839506,0)" xlink:href="#aM"/><use transform="matrix(0.06172839506172839,0,0,0.06172839506172839,37.71604938271605,0)" xlink:href="#aP"/><use transform="matrix(0.06172839506172839,0,0,0.06172839506172839,50.06172839506173,0)" xlink:href="#bB"/><use transform="matrix(0.06172839506172839,0,0,0.06172839506172839,61.172839506172835,0)" xlink:href="#bu"/><use transform="matrix(0.06172839506172839,0,0,0.06172839506172839,73.51851851851852,0)" xlink:href="#aV"/></g><g id="W"><use transform="matrix(0.06172839506172839,0,0,0.06172839506172839,0,0)" xlink:href="#bl"/><use transform="matrix(0.06172839506172839,0,0,0.06172839506172839,12.345679012345679,0)" xlink:href="#aR"/></g><g id="X"><use transform="matrix(0.06172839506172839,0,0,0.06172839506172839,0,0)" xlink:href="#bt"/><use transform="matrix(0.06172839506172839,0,0,0.06172839506172839,15.987654320987653,0)" xlink:href="#bh"/><use transform="matrix(0.06172839506172839,0,0,0.06172839506172839,34.44444444444444,0)" xlink:href="#aM"/><use transform="matrix(0.06172839506172839,0,0,0.06172839506172839,39.32098765432099,0)" xlink:href="#bl"/><use transform="matrix(0.06172839506172839,0,0,0.06172839506172839,51.666666666666664,0)" xlink:href="#aP"/><use transform="matrix(0.06172839506172839,0,0,0.06172839506172839,64.01234567901234,0)" xlink:href="#bl"/><use transform="matrix(0.06172839506172839,0,0,0.06172839506172839,76.35802469135803,0)" xlink:href="#aR"/></g><use transform="matrix(0.06172839506172839,0,0,0.06172839506172839,0,0)" xlink:href="#aR" id="Y"/><g id="Z"><use transform="matrix(0.06172839506172839,0,0,0.06172839506172839,0,0)" xlink:href="#aR"/><use transform="matrix(0.06172839506172839,0,0,0.06172839506172839,12.345679012345679,0)" xlink:href="#bc"/><use transform="matrix(0.06172839506172839,0,0,0.06172839506172839,17.22222222222222,0)" xlink:href="#aP"/></g><g id="aa"><use transform="matrix(0.06172839506172839,0,0,0.06172839506172839,0,0)" xlink:href="#aR"/><use transform="matrix(0.06172839506172839,0,0,0.06172839506172839,12.345679012345679,0)" xlink:href="#aW"/><use transform="matrix(0.06172839506172839,0,0,0.06172839506172839,23.45679012345679,0)" xlink:href="#bi"/><use transform="matrix(0.06172839506172839,0,0,0.06172839506172839,29.62962962962963,0)" xlink:href="#aY"/></g><path fill="#333" d="M115-194c53 0 69 39 70 98 0 66-23 100-70 100C84 3 66-7 56-30L54 0H23l1-261h32v101c10-23 28-34 59-34zm-8 174c40 0 45-34 45-75 0-40-5-75-45-74-42 0-51 32-51 76 0 43 10 73 51 73" id="bC"/><path fill="#333" d="M141 0L90-78 38 0H4l68-98-65-92h35l48 74 47-74h35l-64 92 68 98h-35" id="bD"/><g id="ab"><use transform="matrix(0.06172839506172839,0,0,0.06172839506172839,0,0)" xlink:href="#ba"/><use transform="matrix(0.06172839506172839,0,0,0.06172839506172839,14.814814814814813,0)" xlink:href="#bC"/><use transform="matrix(0.06172839506172839,0,0,0.06172839506172839,27.160493827160494,0)" xlink:href="#aP"/><use transform="matrix(0.06172839506172839,0,0,0.06172839506172839,39.50617283950617,0)" xlink:href="#aM"/><use transform="matrix(0.06172839506172839,0,0,0.06172839506172839,44.382716049382715,0)" xlink:href="#bD"/><use transform="matrix(0.06172839506172839,0,0,0.06172839506172839,55.49382716049382,0)" xlink:href="#aV"/></g><g id="ac"><use transform="matrix(0.06172839506172839,0,0,0.06172839506172839,0,0)" xlink:href="#bl"/><use transform="matrix(0.06172839506172839,0,0,0.06172839506172839,12.345679012345679,0)" xlink:href="#aV"/></g><g id="ad"><use transform="matrix(0.06172839506172839,0,0,0.06172839506172839,0,0)" xlink:href="#aX"/><use transform="matrix(0.06172839506172839,0,0,0.06172839506172839,13.148148148148147,0)" xlink:href="#aP"/><use transform="matrix(0.06172839506172839,0,0,0.06172839506172839,25.493827160493826,0)" xlink:href="#bc"/><use transform="matrix(0.06172839506172839,0,0,0.06172839506172839,30.370370370370367,0)" xlink:href="#aV"/><use transform="matrix(0.06172839506172839,0,0,0.06172839506172839,42.716049382716044,0)" xlink:href="#aS"/></g><g id="ae"><use transform="matrix(0.06172839506172839,0,0,0.06172839506172839,0,0)" xlink:href="#bw"/><use transform="matrix(0.06172839506172839,0,0,0.06172839506172839,15.987654320987653,0)" xlink:href="#aR"/><use transform="matrix(0.06172839506172839,0,0,0.06172839506172839,28.333333333333332,0)" xlink:href="#aW"/><use transform="matrix(0.06172839506172839,0,0,0.06172839506172839,39.44444444444444,0)" xlink:href="#aR"/><use transform="matrix(0.06172839506172839,0,0,0.06172839506172839,51.79012345679012,0)" xlink:href="#bx"/><use transform="matrix(0.06172839506172839,0,0,0.06172839506172839,56.666666666666664,0)" xlink:href="#aP"/><use transform="matrix(0.06172839506172839,0,0,0.06172839506172839,69.01234567901234,0)" xlink:href="#bl"/><use transform="matrix(0.06172839506172839,0,0,0.06172839506172839,81.35802469135803,0)" xlink:href="#aV"/></g><g id="af"><use transform="matrix(0.06172839506172839,0,0,0.06172839506172839,0,0)" xlink:href="#bq"/><use transform="matrix(0.06172839506172839,0,0,0.06172839506172839,18.456790123456788,0)" xlink:href="#aP"/><use transform="matrix(0.06172839506172839,0,0,0.06172839506172839,30.80246913580247,0)" xlink:href="#aM"/><use transform="matrix(0.06172839506172839,0,0,0.06172839506172839,35.67901234567901,0)" xlink:href="#aW"/></g><g id="ag"><use transform="matrix(0.06172839506172839,0,0,0.06172839506172839,0,0)" xlink:href="#bA"/><use transform="matrix(0.06172839506172839,0,0,0.06172839506172839,15.987654320987653,0)" xlink:href="#aY"/></g><path fill="#333" d="M100-194c62-1 85 37 85 99 1 63-27 99-86 99S16-35 15-95c0-66 28-99 85-99zM99-20c44 1 53-31 53-75 0-43-8-75-51-75s-53 32-53 75 10 74 51 75zM76-211c8-23 27-35 38-54h36v5l-58 49H76" id="bE"/><g id="ah"><use transform="matrix(0.06172839506172839,0,0,0.06172839506172839,0,0)" xlink:href="#bb"/><use transform="matrix(0.06172839506172839,0,0,0.06172839506172839,15.987654320987653,0)" xlink:href="#aR"/><use transform="matrix(0.06172839506172839,0,0,0.06172839506172839,28.333333333333332,0)" xlink:href="#aW"/><use transform="matrix(0.06172839506172839,0,0,0.06172839506172839,39.44444444444444,0)" xlink:href="#aR"/><use transform="matrix(0.06172839506172839,0,0,0.06172839506172839,51.79012345679012,0)" xlink:href="#aS"/><use transform="matrix(0.06172839506172839,0,0,0.06172839506172839,59.1358024691358,0)" xlink:href="#aZ"/><use transform="matrix(0.06172839506172839,0,0,0.06172839506172839,70.24691358024691,0)" xlink:href="#aP"/><use transform="matrix(0.06172839506172839,0,0,0.06172839506172839,82.5925925925926,0)" xlink:href="#bi"/><use transform="matrix(0.06172839506172839,0,0,0.06172839506172839,88.76543209876543,0)" xlink:href="#bE"/><use transform="matrix(0.06172839506172839,0,0,0.06172839506172839,101.11111111111111,0)" xlink:href="#aS"/><use transform="matrix(0.06172839506172839,0,0,0.06172839506172839,108.4567901234568,0)" xlink:href="#aM"/><use transform="matrix(0.06172839506172839,0,0,0.06172839506172839,113.33333333333334,0)" xlink:href="#aV"/><use transform="matrix(0.06172839506172839,0,0,0.06172839506172839,125.67901234567903,0)" xlink:href="#by"/></g><path fill="#333" d="M153-248C145-148 188 4 80 4 36 3 13-21 6-62l32-5c4 25 16 42 43 43 27 0 39-20 39-49v-147H72v-28h81" id="bF"/><g id="ai"><use transform="matrix(0.06172839506172839,0,0,0.06172839506172839,0,0)" xlink:href="#bF"/><use transform="matrix(0.06172839506172839,0,0,0.06172839506172839,11.11111111111111,0)" xlink:href="#aY"/></g><g id="aj"><use transform="matrix(0.06172839506172839,0,0,0.06172839506172839,0,0)" xlink:href="#aQ"/><use transform="matrix(0.06172839506172839,0,0,0.06172839506172839,14.814814814814813,0)" xlink:href="#bk"/><use transform="matrix(0.06172839506172839,0,0,0.06172839506172839,27.160493827160494,0)" xlink:href="#aN"/><use transform="matrix(0.06172839506172839,0,0,0.06172839506172839,38.27160493827161,0)" xlink:href="#bn"/><use transform="matrix(0.06172839506172839,0,0,0.06172839506172839,50.617283950617285,0)" xlink:href="#aV"/><use transform="matrix(0.06172839506172839,0,0,0.06172839506172839,62.96296296296296,0)" xlink:href="#bk"/></g><g id="ak"><use transform="matrix(0.06172839506172839,0,0,0.06172839506172839,0,0)" xlink:href="#ba"/><use transform="matrix(0.06172839506172839,0,0,0.06172839506172839,14.814814814814813,0)" xlink:href="#bc"/><use transform="matrix(0.06172839506172839,0,0,0.06172839506172839,19.691358024691354,0)" xlink:href="#bp"/><use transform="matrix(0.06172839506172839,0,0,0.06172839506172839,32.03703703703703,0)" xlink:href="#bk"/><use transform="matrix(0.06172839506172839,0,0,0.06172839506172839,44.38271604938271,0)" xlink:href="#bh"/><use transform="matrix(0.06172839506172839,0,0,0.06172839506172839,62.83950617283949,0)" xlink:href="#aP"/></g><g id="al"><use transform="matrix(0.06172839506172839,0,0,0.06172839506172839,0,0)" xlink:href="#aX"/><use transform="matrix(0.06172839506172839,0,0,0.06172839506172839,13.580246913580245,0)" xlink:href="#aR"/><use transform="matrix(0.06172839506172839,0,0,0.06172839506172839,25.925925925925924,0)" xlink:href="#bm"/><use transform="matrix(0.06172839506172839,0,0,0.06172839506172839,37.03703703703704,0)" xlink:href="#by"/></g><path fill="#333" d="M126-127c33 6 58 20 58 59 0 88-139 92-164 29-3-8-5-16-6-25l32-3c6 27 21 44 54 44 32 0 52-15 52-46 0-38-36-46-79-43v-28c39 1 72-4 72-42 0-27-17-43-46-43-28 0-47 15-49 41l-32-3c6-42 35-63 81-64 48-1 79 21 79 65 0 36-21 52-52 59" id="bG"/><path fill="#333" d="M101-251c82-7 93 87 43 132L82-64C71-53 59-42 53-27h129V0H18c2-99 128-94 128-182 0-28-16-43-45-43s-46 15-49 41l-32-3c6-41 34-60 81-64" id="bH"/><g id="am"><use transform="matrix(0.06172839506172839,0,0,0.06172839506172839,0,0)" xlink:href="#bG"/><use transform="matrix(0.06172839506172839,0,0,0.06172839506172839,12.345679012345679,0)" xlink:href="#bH"/><use transform="matrix(0.06172839506172839,0,0,0.06172839506172839,24.691358024691358,0)" xlink:href="#bg"/><use transform="matrix(0.06172839506172839,0,0,0.06172839506172839,37.03703703703704,0)" xlink:href="#bg"/><use transform="matrix(0.06172839506172839,0,0,0.06172839506172839,49.382716049382715,0)" xlink:href="#bh"/><use transform="matrix(0.06172839506172839,0,0,0.06172839506172839,67.8395061728395,0)" xlink:href="#aW"/></g><g id="an"><use transform="matrix(0.06172839506172839,0,0,0.06172839506172839,0,0)" xlink:href="#bx"/><use transform="matrix(0.06172839506172839,0,0,0.06172839506172839,4.876543209876543,0)" xlink:href="#aY"/></g><g id="ao"><use transform="matrix(0.06172839506172839,0,0,0.06172839506172839,0,0)" xlink:href="#aQ"/><use transform="matrix(0.06172839506172839,0,0,0.06172839506172839,14.814814814814813,0)" xlink:href="#bk"/><use transform="matrix(0.06172839506172839,0,0,0.06172839506172839,27.160493827160494,0)" xlink:href="#aN"/><use transform="matrix(0.06172839506172839,0,0,0.06172839506172839,38.27160493827161,0)" xlink:href="#bn"/><use transform="matrix(0.06172839506172839,0,0,0.06172839506172839,50.617283950617285,0)" xlink:href="#aV"/><use transform="matrix(0.06172839506172839,0,0,0.06172839506172839,62.96296296296296,0)" xlink:href="#bk"/></g><path fill="#333" d="M63-220v92h138v28H63V0H30v-248h175v28H63" id="bI"/><g id="ap"><use transform="matrix(0.06172839506172839,0,0,0.06172839506172839,0,0)" xlink:href="#bI"/><use transform="matrix(0.06172839506172839,0,0,0.06172839506172839,13.518518518518517,0)" xlink:href="#aV"/><use transform="matrix(0.06172839506172839,0,0,0.06172839506172839,25.864197530864196,0)" xlink:href="#aM"/></g><g id="aq"><use transform="matrix(0.06172839506172839,0,0,0.06172839506172839,0,0)" xlink:href="#aK"/><use transform="matrix(0.06172839506172839,0,0,0.06172839506172839,6.172839506172839,0)" xlink:href="#aS"/><use transform="matrix(0.06172839506172839,0,0,0.06172839506172839,13.518518518518519,0)" xlink:href="#aS"/><use transform="matrix(0.06172839506172839,0,0,0.06172839506172839,20.864197530864196,0)" xlink:href="#aM"/><use transform="matrix(0.06172839506172839,0,0,0.06172839506172839,25.74074074074074,0)" xlink:href="#bp"/><use transform="matrix(0.06172839506172839,0,0,0.06172839506172839,38.08641975308642,0)" xlink:href="#aP"/><use transform="matrix(0.06172839506172839,0,0,0.06172839506172839,50.432098765432094,0)" xlink:href="#bl"/><use transform="matrix(0.06172839506172839,0,0,0.06172839506172839,62.77777777777777,0)" xlink:href="#aV"/></g><g id="ar"><use transform="matrix(0.06172839506172839,0,0,0.06172839506172839,0,0)" xlink:href="#aL"/><use transform="matrix(0.06172839506172839,0,0,0.06172839506172839,12.345679012345679,0)" xlink:href="#aV"/></g><g id="as"><use transform="matrix(0.06172839506172839,0,0,0.06172839506172839,0,0)" xlink:href="#bz"/><use transform="matrix(0.06172839506172839,0,0,0.06172839506172839,12.345679012345679,0)" xlink:href="#aV"/><use transform="matrix(0.06172839506172839,0,0,0.06172839506172839,24.691358024691358,0)" xlink:href="#aV"/><use transform="matrix(0.06172839506172839,0,0,0.06172839506172839,37.03703703703704,0)" xlink:href="#bd"/></g><path fill="#333" d="M212-179c-10-28-35-45-73-45-59 0-87 40-87 99 0 60 29 101 89 101 43 0 62-24 78-52l27 14C228-24 195 4 139 4 59 4 22-46 18-125c-6-104 99-153 187-111 19 9 31 26 39 46" id="bJ"/><g id="at"><use transform="matrix(0.06172839506172839,0,0,0.06172839506172839,0,0)" xlink:href="#bJ"/><use transform="matrix(0.06172839506172839,0,0,0.06172839506172839,15.987654320987653,0)" xlink:href="#aV"/><use transform="matrix(0.06172839506172839,0,0,0.06172839506172839,28.333333333333332,0)" xlink:href="#bh"/><use transform="matrix(0.06172839506172839,0,0,0.06172839506172839,46.79012345679012,0)" xlink:href="#aR"/><use transform="matrix(0.06172839506172839,0,0,0.06172839506172839,59.1358024691358,0)" xlink:href="#bB"/><use transform="matrix(0.06172839506172839,0,0,0.06172839506172839,70.24691358024691,0)" xlink:href="#aV"/><use transform="matrix(0.06172839506172839,0,0,0.06172839506172839,82.5925925925926,0)" xlink:href="#bk"/></g><use transform="matrix(0.06172839506172839,0,0,0.06172839506172839,0,0)" xlink:href="#aP" id="au"/><g id="av"><use transform="matrix(0.06172839506172839,0,0,0.06172839506172839,0,0)" xlink:href="#aK"/><use transform="matrix(0.06172839506172839,0,0,0.06172839506172839,6.172839506172839,0)" xlink:href="#aS"/><use transform="matrix(0.06172839506172839,0,0,0.06172839506172839,13.518518518518519,0)" xlink:href="#aS"/><use transform="matrix(0.06172839506172839,0,0,0.06172839506172839,20.864197530864196,0)" xlink:href="#aM"/><use transform="matrix(0.06172839506172839,0,0,0.06172839506172839,25.74074074074074,0)" xlink:href="#bp"/><use transform="matrix(0.06172839506172839,0,0,0.06172839506172839,38.08641975308642,0)" xlink:href="#aP"/><use transform="matrix(0.06172839506172839,0,0,0.06172839506172839,50.432098765432094,0)" xlink:href="#aS"/></g><g id="aw"><use transform="matrix(0.06172839506172839,0,0,0.06172839506172839,0,0)" xlink:href="#bI"/><use transform="matrix(0.06172839506172839,0,0,0.06172839506172839,13.518518518518517,0)" xlink:href="#aV"/><use transform="matrix(0.06172839506172839,0,0,0.06172839506172839,25.864197530864196,0)" xlink:href="#aM"/></g><g id="ax"><use transform="matrix(0.06172839506172839,0,0,0.06172839506172839,0,0)" xlink:href="#aK"/><use transform="matrix(0.06172839506172839,0,0,0.06172839506172839,6.172839506172839,0)" xlink:href="#aS"/><use transform="matrix(0.06172839506172839,0,0,0.06172839506172839,13.518518518518519,0)" xlink:href="#aS"/><use transform="matrix(0.06172839506172839,0,0,0.06172839506172839,20.864197530864196,0)" xlink:href="#aM"/><use transform="matrix(0.06172839506172839,0,0,0.06172839506172839,25.74074074074074,0)" xlink:href="#bp"/><use transform="matrix(0.06172839506172839,0,0,0.06172839506172839,38.08641975308642,0)" xlink:href="#aP"/><use transform="matrix(0.06172839506172839,0,0,0.06172839506172839,50.432098765432094,0)" xlink:href="#bl"/><use transform="matrix(0.06172839506172839,0,0,0.06172839506172839,62.77777777777777,0)" xlink:href="#aV"/></g><g id="ay"><use transform="matrix(0.06172839506172839,0,0,0.06172839506172839,0,0)" xlink:href="#ba"/><use transform="matrix(0.06172839506172839,0,0,0.06172839506172839,14.814814814814813,0)" xlink:href="#aL"/><use transform="matrix(0.06172839506172839,0,0,0.06172839506172839,27.160493827160494,0)" xlink:href="#bi"/><use transform="matrix(0.06172839506172839,0,0,0.06172839506172839,33.333333333333336,0)" xlink:href="#aR"/><use transform="matrix(0.06172839506172839,0,0,0.06172839506172839,45.67901234567901,0)" xlink:href="#aS"/><use transform="matrix(0.06172839506172839,0,0,0.06172839506172839,53.02469135802469,0)" xlink:href="#aM"/><use transform="matrix(0.06172839506172839,0,0,0.06172839506172839,57.901234567901234,0)" xlink:href="#aV"/><use transform="matrix(0.06172839506172839,0,0,0.06172839506172839,70.24691358024691,0)" xlink:href="#aS"/></g><g id="az"><use transform="matrix(0.06172839506172839,0,0,0.06172839506172839,0,0)" xlink:href="#bs"/><use transform="matrix(0.06172839506172839,0,0,0.06172839506172839,11.049382716049381,0)" xlink:href="#aR"/><use transform="matrix(0.06172839506172839,0,0,0.06172839506172839,23.39506172839506,0)" xlink:href="#aS"/><use transform="matrix(0.06172839506172839,0,0,0.06172839506172839,30.74074074074074,0)" xlink:href="#bh"/><use transform="matrix(0.06172839506172839,0,0,0.06172839506172839,49.19753086419753,0)" xlink:href="#aM"/><use transform="matrix(0.06172839506172839,0,0,0.06172839506172839,54.074074074074076,0)" xlink:href="#aL"/><use transform="matrix(0.06172839506172839,0,0,0.06172839506172839,66.41975308641976,0)" xlink:href="#aV"/><use transform="matrix(0.06172839506172839,0,0,0.06172839506172839,78.76543209876544,0)" xlink:href="#bk"/></g><g id="aA"><use transform="matrix(0.06172839506172839,0,0,0.06172839506172839,0,0)" xlink:href="#aW"/><use transform="matrix(0.06172839506172839,0,0,0.06172839506172839,11.11111111111111,0)" xlink:href="#aR"/></g><g id="aB"><use transform="matrix(0.06172839506172839,0,0,0.06172839506172839,0,0)" xlink:href="#bI"/><use transform="matrix(0.06172839506172839,0,0,0.06172839506172839,13.518518518518517,0)" xlink:href="#aV"/><use transform="matrix(0.06172839506172839,0,0,0.06172839506172839,25.864197530864196,0)" xlink:href="#aM"/></g><path fill="#333" d="M169-182c-1-43-94-46-97-3 18 66 151 10 154 114 3 95-165 93-204 36-6-8-10-19-12-30l50-8c3 46 112 56 116 5-17-69-150-10-154-114-4-87 153-88 188-35 5 8 8 18 10 28" id="bK"/><path fill="#333" d="M25-224v-37h50v37H25zM25 0v-190h50V0H25" id="bL"/><path fill="#333" d="M220-157c-53 9-28 100-34 157h-49v-107c1-27-5-49-29-50C55-147 81-57 75 0H25l-1-190h47c2 12-1 28 3 38 10-53 101-56 108 0 13-22 24-43 59-42 82 1 51 116 57 194h-49v-107c-1-25-5-48-29-50" id="bM"/><g id="aC"><use transform="matrix(0.04938271604938272,0,0,0.04938271604938272,0,0)" xlink:href="#bK"/><use transform="matrix(0.04938271604938272,0,0,0.04938271604938272,11.851851851851853,0)" xlink:href="#bL"/><use transform="matrix(0.04938271604938272,0,0,0.04938271604938272,16.790123456790127,0)" xlink:href="#bM"/></g><path fill="#333" d="M175 0L67-191c6 58 2 128 3 191H24v-248h59L193-55c-6-58-2-129-3-193h46V0h-61" id="bN"/><path fill="#333" d="M132-34C116-15 102 5 68 4 31 3 10-16 10-54c-1-60 55-63 116-61 1-26-3-47-28-47-18 1-26 9-28 27l-52-2c7-38 36-58 82-57s74 22 75 68l1 82c-1 14 12 18 25 15v27c-30 8-71 5-69-32zm-48 3c29 0 43-24 42-57-32 0-66-3-65 30 0 17 8 27 23 27zm82-228c-2 27-9 52-40 51-27-1-66-46-73 0H29c0-29 9-51 39-51 28 0 66 44 74 0h24" id="bO"/><path fill="#333" d="M110-194c64 0 96 36 96 99 0 64-35 99-97 99-61 0-95-36-95-99 0-62 34-99 96-99zm-1 164c35 0 45-28 45-65 0-40-10-65-43-65-34 0-45 26-45 65 0 36 10 65 43 65" id="bP"/><g id="aD"><use transform="matrix(0.04938271604938272,0,0,0.04938271604938272,0,0)" xlink:href="#bN"/><use transform="matrix(0.04938271604938272,0,0,0.04938271604938272,12.790123456790125,0)" xlink:href="#bO"/><use transform="matrix(0.04938271604938272,0,0,0.04938271604938272,22.66666666666667,0)" xlink:href="#bP"/></g></defs></g></svg>